<svg width="141" height="28" viewBox="0 0 141 28" fill="none" xmlns="http://www.w3.org/2000/svg">
<path d="M-0.000291824 22L14.4199 14L14.4199 22L-0.000291824 22Z" fill="white"></path>
<g data-figma-bg-blur-radius="11">
<rect x="12.1738" width="128.829" height="28" rx="14" fill="white"></rect>
<path d="M31.7761 18.626C28.8781 18.626 27.1001 16.638 27.1001 13.558V13.446C27.1001 10.478 29.0881 8.336 31.8041 8.336C33.8901 8.336 35.6541 9.442 35.8641 11.612H34.6601C34.4081 10.086 33.5261 9.302 31.8181 9.302C29.7461 9.302 28.3601 10.912 28.3601 13.432V13.544C28.3601 16.092 29.6481 17.632 31.8041 17.632C33.4421 17.632 34.5761 16.806 34.8281 15.182H35.9621C35.6121 17.492 34.0161 18.626 31.7761 18.626ZM37.7326 18.5V7.678H38.8946V12.34C39.2306 11.654 40.0426 11.052 41.2466 11.052C42.7586 11.052 43.8226 11.878 43.8226 14.006V18.5H42.6606V13.922C42.6606 12.634 42.1146 12.06 40.9386 12.06C39.8606 12.06 38.8946 12.746 38.8946 14.062V18.5H37.7326ZM49.0958 18.626C47.0238 18.626 45.5538 17.17 45.5538 14.916V14.804C45.5538 12.592 46.9678 11.052 48.9838 11.052C50.6778 11.052 52.2738 12.074 52.2738 14.692V15.07H46.7578C46.8138 16.736 47.6118 17.66 49.1098 17.66C50.2438 17.66 50.9018 17.24 51.0558 16.386H52.2178C51.9658 17.856 50.7478 18.626 49.0958 18.626ZM46.7998 14.132H51.0838C50.9718 12.62 50.1878 12.018 48.9838 12.018C47.7938 12.018 46.9958 12.83 46.7998 14.132ZM57.0949 18.626C55.0509 18.626 53.5109 17.184 53.5109 14.916V14.804C53.5109 12.564 55.1069 11.052 57.0669 11.052C58.5929 11.052 60.0209 11.752 60.2449 13.614H59.0969C58.9149 12.452 58.0749 12.018 57.0669 12.018C55.7369 12.018 54.7149 13.082 54.7149 14.804V14.916C54.7149 16.708 55.6949 17.66 57.1089 17.66C58.1449 17.66 59.0829 17.058 59.2089 15.868H60.2869C60.1329 17.45 58.8589 18.626 57.0949 18.626ZM62.0412 18.5V7.678H63.2032V14.552L66.2412 11.178H67.5992L64.4632 14.58L67.8652 18.5H66.4512L63.2032 14.706V18.5H62.0412ZM75.1911 18.598C73.8611 18.598 73.2171 17.814 73.2171 16.666V12.158H72.1671V11.178H73.2171V9.512H74.3791V11.178H76.0871V12.158H74.3791V16.554C74.3791 17.268 74.7011 17.618 75.2891 17.618C75.6531 17.618 75.9331 17.562 76.1851 17.464V18.444C75.9471 18.528 75.6671 18.598 75.1911 18.598ZM77.9416 18.5V7.678H79.1036V12.34C79.4396 11.654 80.2516 11.052 81.4556 11.052C82.9676 11.052 84.0316 11.878 84.0316 14.006V18.5H82.8696V13.922C82.8696 12.634 82.3236 12.06 81.1476 12.06C80.0696 12.06 79.1036 12.746 79.1036 14.062V18.5H77.9416ZM89.3048 18.626C87.2328 18.626 85.7628 17.17 85.7628 14.916V14.804C85.7628 12.592 87.1768 11.052 89.1928 11.052C90.8868 11.052 92.4828 12.074 92.4828 14.692V15.07H86.9668C87.0228 16.736 87.8208 17.66 89.3188 17.66C90.4528 17.66 91.1108 17.24 91.2648 16.386H92.4268C92.1748 17.856 90.9568 18.626 89.3048 18.626ZM87.0088 14.132H91.2928C91.1808 12.62 90.3968 12.018 89.1928 12.018C88.0028 12.018 87.2048 12.83 87.0088 14.132ZM99.8049 18.5L97.1449 11.178H98.4049L100.575 17.324L102.717 11.178H103.921L101.289 18.5H99.8049ZM105.477 18.5V11.178H106.639V18.5H105.477ZM106.037 9.652C105.617 9.652 105.267 9.302 105.267 8.882C105.267 8.462 105.617 8.112 106.037 8.112C106.457 8.112 106.807 8.462 106.807 8.882C106.807 9.302 106.457 9.652 106.037 9.652ZM112.014 18.626C109.942 18.626 108.472 17.17 108.472 14.916V14.804C108.472 12.592 109.886 11.052 111.902 11.052C113.596 11.052 115.192 12.074 115.192 14.692V15.07H109.676C109.732 16.736 110.53 17.66 112.028 17.66C113.162 17.66 113.82 17.24 113.974 16.386H115.136C114.884 17.856 113.666 18.626 112.014 18.626ZM109.718 14.132H114.002C113.89 12.62 113.106 12.018 111.902 12.018C110.712 12.018 109.914 12.83 109.718 14.132ZM118.376 18.5L116.122 11.178H117.382L119.09 17.072L120.868 11.178H121.876L123.542 17.072L125.264 11.178H126.454L124.172 18.5H122.884L121.358 13.012L119.65 18.5H118.376Z" fill="#210302"></path>
</g>
<defs>
<clipPath id="bgblur_0_6267_936_clip_path" transform="translate(-1.17383 11)"><rect x="12.1738" width="128.829" height="28" rx="14"></rect>
</clipPath></defs>
</svg>