<svg width="303" height="75" viewBox="0 0 303 75" fill="none" xmlns="http://www.w3.org/2000/svg">
<mask id="mask0_6294_139" style="mask-type:luminance" maskUnits="userSpaceOnUse" x="0" y="0" width="303" height="75">
<path d="M302.273 0H0V75H302.273V0Z" fill="white"></path>
</mask>
<g mask="url(#mask0_6294_139)">
<mask id="mask1_6294_139" style="mask-type:luminance" maskUnits="userSpaceOnUse" x="0" y="0" width="100" height="75">
<path d="M99.8814 0H0V75H99.8814V0Z" fill="white"></path>
</mask>
<g mask="url(#mask1_6294_139)">
<path d="M4.06407 68.7134C5.21363 68.9759 6.14179 69.9179 6.39567 71.0853C6.90546 73.4052 4.90896 75.4339 2.62814 74.9172C1.47858 74.6572 0.552436 73.713 0.29653 72.5456C-0.211226 70.2257 1.78526 68.197 4.06407 68.7134ZM4.06407 24.142C1.78526 23.6255 -0.211226 25.6542 0.29653 27.9742C0.554468 29.1434 1.48061 30.0876 2.62814 30.3458C4.90896 30.8644 6.90546 28.8335 6.39567 26.5136C6.13976 25.3443 5.2116 24.4023 4.06407 24.142ZM4.06407 34.9921C1.78324 34.4735 -0.213257 36.5041 0.29653 38.8243C0.552436 39.9935 1.48061 40.9377 2.62814 41.1959C4.90694 41.7123 6.90141 39.6836 6.39567 37.3658C6.13774 36.1963 5.2116 35.2524 4.06407 34.9921ZM4.06407 46.4288C1.78526 45.9123 -0.211226 47.9411 0.29653 50.261C0.554468 51.4302 1.48061 52.3744 2.62814 52.6326C4.90896 53.149 6.90546 51.1203 6.39567 48.8004C6.13976 47.6312 5.2116 46.6891 4.06407 46.4288ZM4.06407 57.8654C1.78324 57.3469 -0.213257 59.3778 0.29653 61.6977C0.552436 62.8671 1.48061 63.8111 2.62814 64.0693C4.90694 64.586 6.90141 62.5572 6.39567 60.2392C6.13774 59.07 5.2116 58.1258 4.06407 57.8654ZM15.3058 46.4288C13.027 45.9123 11.0305 47.9429 11.5382 50.261C11.7962 51.4302 12.7223 52.3744 13.8698 52.6326C16.1507 53.1512 18.1492 51.1203 17.6394 48.8004C17.3814 47.6312 16.4533 46.687 15.3058 46.4288ZM26.5514 46.4288C24.2707 45.9102 22.2742 47.9411 22.784 50.261C23.0419 51.4302 23.968 52.3744 25.1156 52.6326C27.3964 53.149 29.3909 51.1184 28.8831 48.8004C28.6252 47.6312 27.699 46.6891 26.5514 46.4288ZM63.7393 68.7134C61.4607 68.197 59.4641 70.2257 59.972 72.5456C60.2298 73.7151 61.1561 74.659 62.3034 74.9172C64.5844 75.4339 66.581 73.4052 66.071 71.0853C65.815 69.9158 64.8869 68.9738 63.7393 68.7134ZM63.7393 24.142C61.4607 23.6255 59.4641 25.6542 59.972 27.9742C60.2298 29.1434 61.1561 30.0876 62.3034 30.3458C64.5844 30.8644 66.581 28.8335 66.071 26.5136C65.815 25.3443 64.8869 24.4023 63.7393 24.142ZM63.7393 34.9921C61.4586 34.4735 59.462 36.5041 59.972 38.8243C60.2277 39.9935 61.1561 40.9377 62.3034 41.1959C64.5823 41.7123 66.5768 39.6836 66.071 37.3658C65.8132 36.1963 64.8869 35.2524 63.7393 34.9921ZM63.7393 46.4288C61.4607 45.9123 59.4641 47.9411 59.972 50.261C60.2298 51.4302 61.1561 52.3744 62.3034 52.6326C64.5844 53.149 66.581 51.1203 66.071 48.8004C65.815 47.6312 64.8869 46.6891 63.7393 46.4288ZM63.7393 57.8654C61.4586 57.3469 59.462 59.3778 59.972 61.6977C60.2277 62.8671 61.1561 63.8111 62.3034 64.0693C64.5823 64.586 66.5768 62.5572 66.071 60.2392C65.8132 59.07 64.8869 58.1258 63.7393 57.8654ZM74.9791 46.4288C72.7003 45.9123 70.7058 47.9429 71.2136 50.261C71.4696 51.4302 72.3956 52.3744 73.5432 52.6326C75.8239 53.1512 77.8226 51.1203 77.3127 48.8004C77.0548 47.6312 76.1267 46.687 74.9791 46.4288ZM86.2247 46.4288C83.944 45.9102 81.9475 47.9411 82.4574 50.261C82.7131 51.4302 83.6415 52.3744 84.7888 52.6326C87.0698 53.149 89.0643 51.1184 88.5564 48.8004C88.2986 47.6312 87.3723 46.6891 86.2247 46.4288ZM97.4667 68.7134C95.1878 68.197 93.1912 70.2257 93.699 72.5456C93.9569 73.7151 94.8832 74.659 96.0307 74.9172C98.3115 75.4339 100.308 73.4052 99.7981 71.0853C99.5424 69.9158 98.614 68.9738 97.4667 68.7134ZM97.4667 24.142C95.1878 23.6255 93.1912 25.6542 93.699 27.9742C93.9569 29.1434 94.8832 30.0876 96.0307 30.3458C98.3115 30.8644 100.308 28.8335 99.7981 26.5136C99.5424 25.3443 98.614 24.4023 97.4667 24.142ZM97.4685 34.9921C95.1878 34.4735 93.1912 36.5041 93.7011 38.8243C93.9569 39.9935 94.8853 40.9377 96.0326 41.1959C98.3114 41.7123 100.306 39.6836 99.8002 37.3658C99.5424 36.1963 98.6161 35.2524 97.4685 34.9921ZM97.4667 46.4288C95.1878 45.9123 93.1912 47.9411 93.699 50.261C93.9569 51.4302 94.8832 52.3744 96.0307 52.6326C98.3115 53.149 100.308 51.1203 99.7981 48.8004C99.5424 47.6312 98.614 46.6891 97.4667 46.4288ZM97.4685 57.8654C95.1878 57.3469 93.1912 59.3778 93.7011 61.6977C93.9569 62.8671 94.8853 63.8111 96.0326 64.0693C98.3114 64.586 100.306 62.5572 99.8002 60.2392C99.5424 59.07 98.6161 58.1258 97.4685 57.8654ZM37.6774 68.7134C35.3985 68.197 33.4022 70.2257 33.91 72.5456C34.1679 73.7151 35.0939 74.659 36.2415 74.9172C38.5224 75.4339 40.5187 73.4052 40.0091 71.0853C39.7531 69.9158 38.825 68.9738 37.6774 68.7134ZM37.6774 24.142C35.3985 23.6255 33.4022 25.6542 33.91 27.9742C34.1679 29.1434 35.0939 30.0876 36.2415 30.3458C38.5224 30.8644 40.5187 28.8335 40.0091 26.5136C39.7531 25.3443 38.825 24.4023 37.6774 24.142ZM37.6795 34.9921C35.3985 34.4735 33.4022 36.5041 33.9118 38.8243C34.1679 39.9935 35.096 40.9377 36.2436 41.1959C38.5224 41.7123 40.5169 39.6836 40.0112 37.3658C39.7531 36.1963 38.8271 35.2524 37.6795 34.9921ZM37.6774 46.4288C35.3985 45.9123 33.4022 47.9411 33.91 50.261C34.1679 51.4302 35.0939 52.3744 36.2415 52.6326C38.5224 53.149 40.5187 51.1203 40.0091 48.8004C39.7531 47.6312 38.825 46.6891 37.6774 46.4288ZM37.6795 57.8654C35.3985 57.3469 33.4022 59.3778 33.9118 61.6977C34.1679 62.8671 35.096 63.8111 36.2436 64.0693C38.5224 64.586 40.5169 62.5572 40.0112 60.2392C39.7531 59.07 38.8271 58.1258 37.6795 57.8654ZM53.6169 49.6929C53.5903 51.4302 53.3204 52.6615 52.7902 53.4506L54.6404 55.5517H53.5031L53.4931 55.5415L52.3069 54.1738C51.4092 55.215 50.1744 55.7871 48.8236 55.7871C46.8129 55.7871 45.3546 54.3742 45.3546 52.4239C45.3546 51.2504 45.9397 50.228 46.9593 49.6165L47.8406 49.0875L47.0181 48.1538C46.4635 47.5256 46.2057 46.879 46.2057 46.1167C46.2057 44.5985 47.3958 43.4539 48.9719 43.4539C50.5479 43.4539 51.789 44.5736 51.789 46.1167C51.789 47.1871 51.3178 47.9906 50.3468 48.5751L49.1708 49.286L52.187 52.7649C52.5934 52.0045 52.7658 51.0605 52.7658 49.6288V48.8788H54.862V49.695L53.6169 49.6929ZM47.5157 50.2714C46.7153 50.7463 46.2543 51.5314 46.2543 52.4218C46.2543 53.8267 47.3572 54.8845 48.8215 54.8845C50.0098 54.8845 50.95 54.4278 51.6915 53.4879L48.4073 49.7362L47.5157 50.2714ZM47.0912 46.1148C47.0912 46.6251 47.3186 47.156 47.7696 47.6909L48.6023 48.6683L49.9042 47.85C50.5479 47.4471 50.9177 46.815 50.9177 46.1148C50.9177 45.0383 50.1173 44.2843 48.9719 44.2843C47.8995 44.2843 47.0912 45.0715 47.0912 46.1148ZM0 7.76566H0.656019L1.58216 5.47047H5.27455L6.21086 7.76566H6.89734L3.77568 0.10536H3.11964L0 7.76566ZM1.80964 4.89822L2.45347 3.31163C2.79671 2.47493 3.16027 1.51223 3.4304 0.80363H3.45069C3.72082 1.51223 4.09656 2.48526 4.41747 3.30129L5.04099 4.89822H1.80558H1.80964ZM10.4841 7.76566H12.2633C13.5327 7.76566 14.5624 7.54256 15.4154 6.87734C16.2684 6.22246 16.7579 5.15231 16.7579 3.93552C16.7579 2.7187 16.2684 1.65065 15.4154 0.993691C14.5624 0.326411 13.5327 0.10536 12.2633 0.10536H10.4841V7.76566ZM12.2328 7.17276H11.1198V0.698271H12.2328C13.356 0.698271 14.209 0.857344 14.9483 1.39654C15.6876 1.94607 16.1243 2.86746 16.1243 3.93552C16.1243 5.00357 15.6876 5.92497 14.9483 6.47448C14.209 7.01368 13.356 7.17276 12.2328 7.17276ZM18.1512 7.76566H22.4164V7.17276H18.7869V4.07392H21.9167V3.49136H18.7869V0.698271H22.3229V0.10536H18.1512V7.76566ZM26.0255 7.76566H26.6694L29.592 0.10536H28.9359L27.1893 4.68544C26.9088 5.41471 26.6389 6.14601 26.3566 6.91867H26.3361C26.0661 6.14601 25.7858 5.41677 25.5137 4.69784L23.7771 0.10536H23.0906L26.0255 7.76566ZM30.6644 7.76566H34.9296V7.17276H31.2999V4.07392H34.4299V3.49136H31.2999V0.698271H34.836V0.10536H30.6644V7.76566ZM36.406 7.76566H40.7748V7.17276H37.0418V0.10536H36.4081L36.406 7.76566ZM45.0804 7.87104C47.2437 7.87104 48.8662 6.1357 48.8662 3.93552C48.8662 1.73534 47.2437 0 45.0804 0C42.9175 0 41.2844 1.73534 41.2844 3.93552C41.2844 6.1357 42.9175 7.87104 45.0804 7.87104ZM45.0804 7.26779C43.2505 7.26779 41.9181 5.78654 41.9181 3.93552C41.9181 2.08448 43.2505 0.603238 45.0804 0.603238C46.9104 0.603238 48.2327 2.08448 48.2327 3.93552C48.2327 5.78654 46.9004 7.26779 45.0804 7.26779ZM50.3021 7.76566H50.9358V4.63379H52.5789C53.4016 4.63379 53.9925 4.52842 54.5145 4.14624C55.0447 3.77644 55.3879 3.14014 55.3879 2.36957C55.3879 1.599 55.0447 0.952374 54.5145 0.582581C53.9946 0.212787 53.4016 0.107426 52.5789 0.107426H50.3003V7.76775L50.3021 7.76566ZM50.9358 4.05121V0.698271H52.5587C53.235 0.698271 53.692 0.762313 54.0981 1.03708C54.4943 1.31184 54.7542 1.80972 54.7542 2.36957C54.7542 2.92942 54.4943 3.42731 54.0981 3.70208C53.692 3.97682 53.235 4.05121 52.5587 4.05121H50.9358ZM56.7203 7.76566H57.3438V3.0038C57.3438 2.35924 57.3335 1.74568 57.3235 1.18375H57.3438C57.6973 1.72295 58.0931 2.31586 58.4669 2.86538L60.2461 5.45807L62.0253 2.86538C62.3991 2.31586 62.7949 1.72295 63.1485 1.18375H63.1687C63.1587 1.74361 63.1485 2.35718 63.1485 3.0038V7.76566H63.7922V0.10536H63.1789L60.2564 4.37968L57.3335 0.10536H56.7203V7.76566ZM65.6547 7.76566H69.9199V7.17276H66.2905V4.07392H69.4223V3.49136H66.2905V0.698271H69.8263V0.10536H65.6547V7.76566ZM71.3963 7.76566H72.02V3.45003C72.02 2.67739 72.0098 1.87376 71.9995 1.15483H72.02C72.4871 1.81178 72.9765 2.477 73.4457 3.11121L76.8782 7.76566H77.4814V0.10536H76.868V4.34869C76.868 5.142 76.868 5.95596 76.8782 6.71826H76.8577C76.3906 6.06338 75.9115 5.39609 75.4441 4.76188L71.9995 0.10536H71.3963V7.76566ZM81.32 7.76566H81.9538V0.698271H84.5636V0.10536H78.7081V0.698271H81.3179L81.32 7.76566ZM87.9351 7.76566H90.2544C91.1279 7.76566 91.6578 7.64997 92.1574 7.29051C92.6469 6.93104 92.9678 6.36913 92.9678 5.66054C92.9678 4.70815 92.3951 4.0099 91.4811 3.78884V3.76819C92.2082 3.50376 92.6571 2.86953 92.6571 2.07622C92.6571 1.37795 92.3241 0.838752 91.867 0.520604C91.4102 0.202457 90.89 0.107426 90.1306 0.107426H87.9369V7.76775L87.9351 7.76566ZM88.5685 3.5554V0.68794H90.098C90.6708 0.68794 91.085 0.741654 91.4304 0.983362C91.7737 1.21681 92.0134 1.5866 92.0134 2.13613C92.0134 2.99346 91.3471 3.55334 90.4108 3.55334H88.5706L88.5685 3.5554ZM90.2442 7.1831H88.5685V4.11525H90.5449C91.5744 4.11525 92.3241 4.6751 92.3241 5.6378C92.3241 6.177 92.0844 6.59017 91.7308 6.84429C91.3673 7.0984 90.941 7.1831 90.2442 7.1831ZM96.1829 7.76566H96.8166V4.30532L99.719 0.10536H99.0019L97.5884 2.14646C97.2146 2.68564 96.8613 3.21453 96.5181 3.75372H96.4978C96.1545 3.21453 95.791 2.68564 95.4275 2.15679L94.0139 0.103294H93.2643L96.1871 4.30323V7.7636L96.1829 7.76566Z" fill="white"></path>
</g>
<path d="M123.539 8.03564V74.9999" stroke="white" stroke-opacity="0.33" stroke-width="0.5"></path>
<path d="M179.545 8.03546V0.374749H180.134V7.5426H183.782V8.03546H179.545ZM185.12 8.03546V0.374749H189.441V0.867606H185.709V3.85689H188.737V4.34975H185.709V7.5426H189.631V8.03546H185.12ZM190.506 8.03546L193.208 0.374749H193.986L196.689 8.03546H196.099L195.269 5.68903H191.884L191.064 8.03546H190.506ZM193.576 0.867606L192.052 5.20689H195.101L193.576 0.867606ZM200.123 8.12118C198.262 8.12118 197.484 7.09261 197.326 5.83903H197.904C198.03 6.80332 198.556 7.62832 200.123 7.62832C201.3 7.62832 202.068 6.93189 202.068 5.98903C202.068 4.91761 201.563 4.54261 200.049 4.30689C198.409 4.06046 197.62 3.50332 197.62 2.29261C197.62 1.10332 198.577 0.289035 199.986 0.289035C201.384 0.289035 202.236 0.996177 202.404 2.21761H201.868C201.689 1.26403 201.1 0.781892 199.986 0.781892C198.829 0.781892 198.167 1.32832 198.167 2.24975C198.167 3.08546 198.577 3.53546 200.144 3.77118C201.826 4.02832 202.635 4.51046 202.635 5.94618C202.635 7.15689 201.637 8.12118 200.123 8.12118ZM204.229 8.03546V0.374749H204.818V8.03546H204.229ZM206.805 8.03546V0.374749H207.604L211.81 7.21046V0.374749H212.367V8.03546H211.673L207.373 1.03903V8.03546H206.805ZM217.496 8.12118C215.236 8.12118 213.89 6.50332 213.89 4.25332V4.16761C213.89 1.92832 215.415 0.27832 217.475 0.27832C218.916 0.27832 220.209 0.964034 220.493 2.56046H219.904C219.631 1.29618 218.685 0.760463 217.486 0.760463C215.678 0.760463 214.489 2.16403 214.489 4.15689V4.24261C214.489 6.27832 215.562 7.62832 217.496 7.62832C219.252 7.62832 220.135 6.52475 220.156 4.84261V4.79975H217.843V4.29618H220.724V4.73546C220.724 6.94261 219.431 8.12118 217.496 8.12118ZM224.845 8.03546V0.374749H226.832C228.293 0.374749 229.397 0.974749 229.397 2.52832V2.57118C229.397 4.14618 228.304 4.75689 226.842 4.75689H225.434V8.03546H224.845ZM225.434 4.27475H226.885C228.094 4.27475 228.809 3.74975 228.809 2.57118V2.52832C228.809 1.28546 228.041 0.867606 226.863 0.867606H225.434V4.27475ZM229.625 8.03546L232.327 0.374749H233.105L235.807 8.03546H235.219L234.388 5.68903H231.003L230.182 8.03546H229.625ZM232.695 0.867606L231.171 5.20689H234.22L232.695 0.867606ZM237.125 8.03546V0.374749H239.185C240.647 0.374749 241.74 0.95332 241.74 2.43189V2.47475C241.74 3.74975 240.92 4.33903 239.795 4.49975L242.182 8.03546H241.53L239.175 4.54261H237.714V8.03546H237.125ZM237.714 4.06046H239.217C240.426 4.06046 241.152 3.58903 241.152 2.47475V2.43189C241.152 1.25332 240.384 0.867606 239.217 0.867606H237.714V4.06046ZM244.978 8.03546V0.867606H242.643V0.374749H247.89V0.867606H245.556V8.03546H244.978ZM249.168 8.03546V0.374749H249.967L254.173 7.21046V0.374749H254.73V8.03546H254.036L249.736 1.03903V8.03546H249.168ZM256.663 8.03546V0.374749H260.985V0.867606H257.252V3.85689H260.28V4.34975H257.252V7.5426H261.174V8.03546H256.663ZM262.619 8.03546V0.374749H264.679C266.14 0.374749 267.233 0.95332 267.233 2.43189V2.47475C267.233 3.74975 266.413 4.33903 265.289 4.49975L267.675 8.03546H267.023L264.669 4.54261H263.207V8.03546H262.619ZM263.207 4.06046H264.711C265.919 4.06046 266.644 3.58903 266.644 2.47475V2.43189C266.644 1.25332 265.877 0.867606 264.711 0.867606H263.207V4.06046Z" fill="white"></path>
<path d="M155.846 54.2624C154.472 54.2624 153.353 54.751 152.362 55.5979V56.2496C153.129 55.6306 153.864 55.37 154.632 55.37C155.399 55.37 156.358 55.7935 156.901 56.7709C157.445 57.748 157.733 59.3118 157.733 61.5923C157.733 65.8925 156.55 68.4661 154.376 68.4661C152.202 68.4661 151.914 67.3909 151.499 65.8271V45.5967L147.727 49.441V68.6616H148.462L149.9 67.1956C151.051 68.2705 152.618 68.9222 154.855 68.9222C158.628 68.9222 161.728 65.7947 161.728 61.3317C161.728 56.8684 159.139 54.3275 155.846 54.3275" fill="white"></path>
<path d="M221.986 68.632H225.791V45.5347L221.986 49.3787V68.632Z" fill="white"></path>
<path d="M230.365 54.2349C228.767 54.2349 227.616 54.7561 226.625 55.6031V56.1894C227.328 55.6682 228.031 55.4402 228.735 55.4402C231.068 55.4402 231.1 57.9811 231.1 58.9258V69.6439L234.873 65.7999V59.2191C234.873 55.7986 233.21 54.2675 230.365 54.2675" fill="white"></path>
<path d="M167.004 60.2616H172.982C173.301 56.8735 172.054 54.6257 170.264 54.6257C168.474 54.6257 167.131 57.0691 167.004 60.2616ZM167.004 60.6851V60.7829C167.004 65.311 168.89 67.396 171.607 67.396C174.324 67.396 174.74 66.7119 176.018 65.0831L176.338 65.2786C174.612 67.8846 172.342 68.9271 169.881 68.9271C166.013 68.9271 163.104 66.1907 163.104 61.8578C163.104 57.5252 166.236 54.2349 170.488 54.2349C174.74 54.2349 176.53 57.2319 176.37 60.6851H167.036H167.004Z" fill="white"></path>
<path d="M186.734 67.429C185.487 68.3086 184.273 68.9601 182.578 68.9601C179.254 68.9601 178.87 66.582 178.87 65.2465V55.1475H177.176V54.6913L178.806 54.5611L182.514 49.707H182.61V54.5611H187.917L186.287 55.1475H182.578V65.3767C182.578 66.0281 182.578 67.7874 184.369 67.7874C186.159 67.7874 185.615 67.5919 186.447 67.136L186.638 67.4617L186.734 67.429Z" fill="white"></path>
<path d="M195.869 67.429C194.622 68.3086 193.407 68.9601 191.713 68.9601C188.388 68.9601 188.005 66.582 188.005 65.2465V55.1475H186.311V54.6913L187.941 54.5611L191.649 49.707H191.745V54.5611H195.773L195.453 55.1475H191.745V65.3767C191.745 66.0281 191.745 67.7874 193.535 67.7874C195.325 67.7874 194.782 67.5919 195.613 67.136L195.805 67.4617L195.869 67.429Z" fill="white"></path>
<path d="M199.642 60.2616H205.62C205.94 56.8735 204.693 54.6257 202.903 54.6257C201.113 54.6257 199.77 57.0691 199.642 60.2616ZM199.642 60.6851V60.7829C199.642 65.311 201.528 67.396 204.246 67.396C206.963 67.396 207.378 66.7119 208.657 65.0831L208.977 65.2786C207.251 67.8846 204.981 68.9271 202.519 68.9271C198.651 68.9271 195.742 66.1907 195.742 61.8578C195.742 57.5252 198.875 54.2349 203.127 54.2349C207.378 54.2349 209.169 57.2319 209.009 60.6851H199.674H199.642Z" fill="white"></path>
<path d="M219.905 54.3857L218.913 57.2526C218.466 57.0246 217.955 56.9269 217.539 56.9269C216.26 56.9269 215.205 57.8716 214.79 59.3049V68.6547H211.018V55.1025L214.598 54.1904H214.694V58.4906C215.365 55.917 216.932 54.2555 218.786 54.2555C220.64 54.2555 219.745 54.3533 219.905 54.4184" fill="white"></path>
<path d="M247.237 61.695C247.237 57.4599 245.991 54.5933 243.817 54.5933C241.643 54.5933 240.492 57.3297 240.492 61.5321C240.492 65.7345 241.739 68.569 243.881 68.569C246.023 68.569 247.205 65.8323 247.205 61.695M236.496 61.6625C236.496 57.1995 239.693 54.2349 243.977 54.2349C248.26 54.2349 251.233 57.004 251.233 61.4997C251.233 65.9951 248.005 68.9271 243.753 68.9271C239.501 68.9271 236.496 66.158 236.496 61.6625Z" fill="white"></path>
<path d="M274.543 59.2366V68.6191H270.74V58.8458C270.74 57.8684 270.74 55.4252 268.374 55.4252C266.008 55.4252 266.455 55.8811 265.304 57.1843C265.496 57.7709 265.559 58.455 265.559 59.2366V68.6191H261.787V58.8458C261.787 57.8684 261.787 55.4252 259.39 55.4252C256.992 55.4252 257.568 55.816 256.577 56.8912V68.6191H252.805V55.0668L256.481 54.1548H256.577V56.4024C257.76 55.1319 259.038 54.2199 261.084 54.2199C263.13 54.2199 264.537 55.0342 265.175 56.7284C266.424 55.2624 267.764 54.2199 270.067 54.2199C272.369 54.2199 274.543 55.7836 274.543 59.2042" fill="white"></path>
<path d="M280.136 60.2616H286.116C286.434 56.8735 285.188 54.6257 283.398 54.6257C281.608 54.6257 280.265 57.0691 280.136 60.2616ZM280.136 60.6851V60.7829C280.136 65.311 282.024 67.396 284.741 67.396C287.457 67.396 287.874 66.7119 289.152 65.0831L289.473 65.2786C287.746 67.8846 285.475 68.9271 283.014 68.9271C279.145 68.9271 276.238 66.1907 276.238 61.8578C276.238 57.5252 279.369 54.2349 283.622 54.2349C287.874 54.2349 289.664 57.2319 289.504 60.6851H280.17H280.136Z" fill="white"></path>
<path d="M290.678 67.8846L291.188 65.9951C292.213 67.396 294.066 68.6014 296.208 68.6014C298.35 68.6014 299.212 67.6566 299.212 66.2884C299.212 64.9202 297.709 64.1057 296.079 63.4542L294.994 63.0308C293.49 62.4444 290.87 61.3692 290.87 58.6001C290.87 55.831 292.754 54.2349 296.271 54.2349C299.788 54.2349 300.14 54.8863 300.81 55.2447L300.364 56.9062C299.467 55.8637 297.869 54.6257 295.856 54.6257C293.842 54.6257 293.17 55.5704 293.17 56.7433C293.17 57.916 294.802 58.9258 296.334 59.5125L297.391 59.9033C298.86 60.4896 301.515 61.5321 301.515 64.4317C301.515 67.3309 299.628 68.9598 295.824 68.9598C292.021 68.9598 291.445 68.3734 290.678 67.8846Z" fill="white"></path>
</g>
</svg>