<svg xmlns="http://www.w3.org/2000/svg" width="68.941" height="30.051" viewBox="0 0 68.941 30.051" fill="none">
  <path d="M 25.508 0.299 L 25.163 1.226 C 25.163 1.226 24.612 0.804 23.654 0.804 L 21.517 0.804 L 21.517 12.187 C 21.517 12.187 21.479 12.716 21.854 12.992 L 21.854 13.007 L 20.184 13.007 L 20.184 12.992 C 20.56 12.716 20.521 12.187 20.521 12.187 L 20.521 0.804 L 18.377 0.804 C 17.419 0.804 16.868 1.226 16.868 1.226 L 16.523 0.299 L 25.493 0.299 L 25.508 0.299 Z M 16.538 17.036 L 16.883 17.963 C 16.883 17.963 17.434 17.542 18.392 17.542 L 20.537 17.542 L 20.537 28.924 C 20.537 28.924 20.575 29.453 20.2 29.729 L 20.2 29.744 L 21.87 29.744 L 21.87 29.729 C 21.494 29.453 21.532 28.924 21.532 28.924 L 21.532 17.542 L 23.67 17.542 C 24.627 17.542 25.179 17.963 25.179 17.963 L 25.523 17.036 L 16.553 17.036 L 16.538 17.036 Z M 48.619 17.036 C 48.795 17.473 48.657 17.971 48.657 17.971 L 44.811 28.58 C 44.811 28.564 42.843 23.202 42.843 23.202 C 43.678 20.797 44.451 18.568 44.551 18.262 C 44.796 17.542 45.34 17.044 45.34 17.044 L 43.961 17.044 C 44.137 17.48 44 17.978 44 17.978 L 42.475 22.214 L 41.158 18.614 C 41.158 18.614 41.104 18.476 41.02 18.139 C 40.897 17.656 41.035 17.051 41.035 17.051 L 39.105 17.051 C 39.518 17.258 39.84 17.971 39.84 17.971 L 41.924 23.754 L 40.192 28.595 C 40.192 28.58 38.952 25.271 38.515 24.106 C 37.979 22.674 37.534 21.18 36.707 19.878 C 36.117 18.959 35.359 18.185 34.432 17.603 C 33.459 16.99 32.257 16.783 31.123 16.783 C 27.392 16.783 24.367 19.755 24.367 23.417 C 24.367 27.078 27.392 30.051 31.123 30.051 C 34.853 30.051 35.979 28.61 37.113 26.496 L 36.539 25.133 C 35.872 27.722 33.704 29.622 31.123 29.622 C 28.541 29.622 25.5 26.864 25.5 23.463 C 25.5 20.062 28.021 17.312 31.123 17.312 C 34.225 17.312 34.44 18.2 35.451 19.556 C 36.148 20.498 36.485 21.601 36.86 22.689 C 37.136 23.478 37.404 24.275 37.665 25.071 L 39.327 29.767 L 40.537 29.767 C 40.537 29.767 41.556 26.887 42.284 24.788 L 44.053 29.767 L 45.156 29.767 C 45.156 29.767 48.979 18.92 49.193 18.277 C 49.438 17.549 49.982 17.059 49.982 17.059 L 48.603 17.059 L 48.619 17.036 Z M 55.428 29.093 L 52.318 29.093 L 52.318 23.348 C 52.885 23.371 53.85 23.425 54.762 23.57 C 55.834 23.739 56.861 24.007 56.861 24.007 L 57.297 22.965 L 52.318 22.965 L 52.318 17.634 L 56.233 17.634 C 57.32 17.634 58.201 18.009 58.201 18.009 L 58.201 17.044 L 50.986 17.044 L 50.986 17.059 C 51.361 17.335 51.323 17.863 51.323 17.863 L 51.323 28.924 C 51.323 28.924 51.361 29.453 50.986 29.729 L 50.986 29.744 L 58.247 29.744 L 59.082 28.197 C 59.082 28.197 57.895 29.093 55.421 29.093 L 55.428 29.093 Z M 68.941 29.729 L 68.941 29.744 L 66.873 29.744 C 66.604 29.101 65.961 27.86 65.961 27.86 L 64.268 24.581 C 62.805 24.65 61.587 24.229 61.166 24.06 L 61.166 28.924 C 61.166 28.924 61.12 29.453 61.495 29.729 L 61.495 29.744 L 59.833 29.744 L 59.833 29.729 C 60.208 29.453 60.17 28.924 60.17 28.924 L 60.17 17.863 C 60.17 17.863 60.208 17.335 59.833 17.059 L 59.833 17.044 L 63.096 17.044 C 63.74 17.044 64.437 17.044 65.072 17.143 C 66.436 17.358 67.662 18.139 68.106 19.48 C 68.244 19.901 68.305 20.345 68.305 20.789 C 68.305 22.03 67.302 23.961 65.203 24.466 C 65.402 24.872 65.769 25.646 66.459 26.925 C 67.516 28.871 68.734 29.629 68.933 29.744 L 68.941 29.729 Z M 64.927 23.922 C 65.724 23.693 66.367 23.156 66.75 22.421 C 67.194 21.563 67.317 20.253 66.896 19.357 C 66.574 18.683 65.93 18.185 65.233 17.925 C 64.421 17.618 63.571 17.626 62.721 17.626 C 62.721 17.626 61.311 17.626 61.173 17.626 L 61.173 23.524 C 62.353 23.961 63.694 24.275 64.927 23.922 Z M 15.32 0.314 L 15.32 0.299 L 13.65 0.299 L 13.65 0.314 C 13.934 0.521 13.987 0.881 13.987 1.042 C 13.987 1.095 13.987 1.126 13.987 1.126 L 13.987 12.187 C 13.987 12.187 13.987 12.218 13.987 12.271 C 13.987 12.432 13.934 12.785 13.65 12.999 L 13.65 13.014 L 15.32 13.014 L 15.32 12.999 C 15.037 12.792 14.991 12.432 14.983 12.271 L 14.983 1.126 C 14.983 1.126 14.983 1.095 14.983 1.042 C 14.983 0.881 15.037 0.529 15.32 0.314 Z M 34.639 1.555 C 35.014 0.889 35.642 0.299 35.642 0.299 L 34.049 0.299 C 34.287 0.735 34.087 1.226 34.087 1.226 L 31.337 6.289 C 30.564 4.902 28.672 1.769 28.541 1.402 C 28.319 0.812 28.541 0.291 28.541 0.291 L 26.726 0.291 C 27.147 0.544 27.461 1.21 27.461 1.21 L 30.717 6.948 L 30.717 12.18 C 30.717 12.18 30.717 12.21 30.717 12.264 C 30.717 12.425 30.663 12.777 30.38 12.992 L 30.38 13.007 L 32.05 13.007 L 32.05 12.992 C 31.766 12.785 31.72 12.425 31.713 12.264 L 31.713 6.948 C 33.268 3.891 34.424 1.93 34.639 1.547 L 34.639 1.555 Z M 11.72 10.571 C 10.341 12.21 8.748 12.854 6.756 12.854 C 3.654 12.854 1.134 10.096 1.134 6.695 C 1.134 3.294 3.654 0.536 6.756 0.536 C 9.859 0.536 9.552 1.425 10.571 2.558 L 11.375 1.792 C 10.165 0.682 8.541 0 6.756 0 C 3.026 0 0 2.972 0 6.634 C 0 10.295 3.026 13.267 6.756 13.267 C 10.487 13.267 10.762 12.31 12.003 10.816 L 11.712 10.556 L 11.72 10.571 Z" fill="currentColor" fill-rule="nonzero"></path>
</svg>