<svg width="298" height="32" viewBox="0 0 298 32" fill="none" xmlns="http://www.w3.org/2000/svg">
<path d="M-3.24249e-05 26.2856L15.8726 17.1428L15.8726 26.2856L-3.24249e-05 26.2856Z" fill="white"></path>
<g data-figma-bg-blur-radius="11">
<rect x="13.0029" width="285" height="32" rx="16" fill="white"></rect>
<path d="M31.1401 21L28.1641 9.56H29.5881L31.9081 18.792L34.5961 9.56H35.5881L38.2761 18.824L40.6281 9.56H41.9241L38.9481 21H37.6681L35.0761 11.96L32.4041 21H31.1401ZM46.6552 20.04C48.3352 20.04 49.3912 18.776 49.3912 16.888V16.776C49.3912 14.84 48.3192 13.592 46.6552 13.592C44.9752 13.592 43.9192 14.84 43.9192 16.76V16.888C43.9192 18.792 44.9592 20.04 46.6552 20.04ZM46.6392 21.144C44.2552 21.144 42.5432 19.336 42.5432 16.888V16.76C42.5432 14.248 44.2872 12.488 46.6552 12.488C49.0232 12.488 50.7672 14.232 50.7672 16.744V16.872C50.7672 19.4 49.0232 21.144 46.6392 21.144ZM52.8235 21V12.632H54.1515V14.136C54.6795 13.192 55.3995 12.536 56.9035 12.488V13.736C55.2235 13.816 54.1515 14.344 54.1515 16.408V21H52.8235ZM58.8711 21V8.632H60.2151V21H58.8711ZM66.0849 21.144C63.8929 21.144 62.3089 19.592 62.3089 16.984V16.856C62.3089 14.296 63.9089 12.488 66.2129 12.488C67.6049 12.488 68.4689 13.16 68.9489 13.976V8.632H70.2769V21H68.9489V19.56C68.4689 20.376 67.3009 21.144 66.0849 21.144ZM66.2289 20.04C67.7809 20.04 68.9969 19.016 68.9969 16.872V16.744C68.9969 14.6 67.9729 13.592 66.3409 13.592C64.6769 13.592 63.6849 14.76 63.6849 16.792V16.92C63.6849 19.032 64.8209 20.04 66.2289 20.04ZM79.6465 21V10.696H76.3185V9.56H84.3665V10.696H81.0385V21H79.6465ZM85.5266 21V12.632H86.8546V14.136C87.3826 13.192 88.1026 12.536 89.6066 12.488V13.736C87.9266 13.816 86.8546 14.344 86.8546 16.408V21H85.5266ZM97.8726 21.144C96.3206 21.144 95.0886 20.392 95.0886 18.68C95.0886 16.744 97.1366 16.088 99.2806 16.088H100.481V15.48C100.481 14.152 99.9686 13.592 98.6886 13.592C97.5366 13.592 96.8966 14.072 96.7686 15.096H95.4406C95.6166 13.192 97.1366 12.488 98.7526 12.488C100.353 12.488 101.809 13.144 101.809 15.48V21H100.481V19.944C99.8566 20.728 99.1046 21.144 97.8726 21.144ZM98.0006 20.088C99.4086 20.088 100.481 19.368 100.481 18.072V17.032H99.3286C97.6486 17.032 96.4166 17.448 96.4166 18.68C96.4166 19.544 96.8326 20.088 98.0006 20.088ZM107.569 21.144C105.377 21.144 103.793 19.592 103.793 16.984V16.856C103.793 14.296 105.393 12.488 107.697 12.488C109.089 12.488 109.953 13.16 110.433 13.976V8.632H111.761V21H110.433V19.56C109.953 20.376 108.785 21.144 107.569 21.144ZM107.713 20.04C109.265 20.04 110.481 19.016 110.481 16.872V16.744C110.481 14.6 109.457 13.592 107.825 13.592C106.161 13.592 105.169 14.76 105.169 16.792V16.92C105.169 19.032 106.305 20.04 107.713 20.04ZM117.872 21.144C115.504 21.144 113.824 19.48 113.824 16.904V16.776C113.824 14.248 115.44 12.488 117.744 12.488C119.68 12.488 121.504 13.656 121.504 16.648V17.08H115.2C115.264 18.984 116.176 20.04 117.888 20.04C119.184 20.04 119.936 19.56 120.112 18.584H121.44C121.152 20.264 119.76 21.144 117.872 21.144ZM115.248 16.008H120.144C120.016 14.28 119.12 13.592 117.744 13.592C116.384 13.592 115.472 14.52 115.248 16.008ZM132.657 21.144C129.345 21.144 127.313 18.872 127.313 15.352V15.224C127.313 11.832 129.585 9.384 132.689 9.384C135.073 9.384 137.089 10.648 137.329 13.128H135.953C135.665 11.384 134.657 10.488 132.705 10.488C130.337 10.488 128.753 12.328 128.753 15.208V15.336C128.753 18.248 130.225 20.008 132.689 20.008C134.561 20.008 135.857 19.064 136.145 17.208H137.441C137.041 19.848 135.217 21.144 132.657 21.144ZM142.888 21.144C140.52 21.144 138.84 19.48 138.84 16.904V16.776C138.84 14.248 140.456 12.488 142.76 12.488C144.696 12.488 146.52 13.656 146.52 16.648V17.08H140.216C140.28 18.984 141.192 20.04 142.904 20.04C144.2 20.04 144.952 19.56 145.128 18.584H146.456C146.168 20.264 144.776 21.144 142.888 21.144ZM140.264 16.008H145.16C145.032 14.28 144.136 13.592 142.76 13.592C141.4 13.592 140.488 14.52 140.264 16.008ZM148.558 21V12.632H149.886V13.96C150.27 13.176 151.198 12.488 152.574 12.488C154.302 12.488 155.518 13.432 155.518 15.864V21H154.19V15.768C154.19 14.296 153.566 13.64 152.222 13.64C150.99 13.64 149.886 14.424 149.886 15.928V21H148.558ZM160.664 21.112C159.144 21.112 158.408 20.216 158.408 18.904V13.752H157.208V12.632H158.408V10.728H159.736V12.632H161.688V13.752H159.736V18.776C159.736 19.592 160.104 19.992 160.776 19.992C161.192 19.992 161.512 19.928 161.8 19.816V20.936C161.528 21.032 161.208 21.112 160.664 21.112ZM167.232 21.144C164.864 21.144 163.184 19.48 163.184 16.904V16.776C163.184 14.248 164.8 12.488 167.104 12.488C169.04 12.488 170.864 13.656 170.864 16.648V17.08H164.56C164.624 18.984 165.536 20.04 167.248 20.04C168.544 20.04 169.296 19.56 169.472 18.584H170.8C170.512 20.264 169.12 21.144 167.232 21.144ZM164.608 16.008H169.504C169.376 14.28 168.48 13.592 167.104 13.592C165.744 13.592 164.832 14.52 164.608 16.008ZM172.902 21V12.632H174.23V14.136C174.758 13.192 175.478 12.536 176.982 12.488V13.736C175.302 13.816 174.23 14.344 174.23 16.408V21H172.902ZM183.248 21V9.56H185.184L188.72 18.472L192.144 9.56H194.064V21H192.672V11.368L188.88 21H188.448L184.528 11.368V21H183.248ZM200.279 21.144C197.911 21.144 196.231 19.48 196.231 16.904V16.776C196.231 14.248 197.847 12.488 200.151 12.488C202.087 12.488 203.911 13.656 203.911 16.648V17.08H197.607C197.671 18.984 198.583 20.04 200.295 20.04C201.591 20.04 202.343 19.56 202.519 18.584H203.847C203.559 20.264 202.167 21.144 200.279 21.144ZM197.655 16.008H202.551C202.423 14.28 201.527 13.592 200.151 13.592C198.791 13.592 197.879 14.52 197.655 16.008ZM208.492 21.112C206.972 21.112 206.236 20.216 206.236 18.904V13.752H205.036V12.632H206.236V10.728H207.564V12.632H209.516V13.752H207.564V18.776C207.564 19.592 207.932 19.992 208.604 19.992C209.02 19.992 209.34 19.928 209.628 19.816V20.936C209.356 21.032 209.036 21.112 208.492 21.112ZM211.636 21V12.632H212.964V14.136C213.492 13.192 214.212 12.536 215.716 12.488V13.736C214.036 13.816 212.964 14.344 212.964 16.408V21H211.636ZM220.905 20.04C222.585 20.04 223.641 18.776 223.641 16.888V16.776C223.641 14.84 222.569 13.592 220.905 13.592C219.225 13.592 218.169 14.84 218.169 16.76V16.888C218.169 18.792 219.209 20.04 220.905 20.04ZM220.889 21.144C218.505 21.144 216.793 19.336 216.793 16.888V16.76C216.793 14.248 218.537 12.488 220.905 12.488C223.273 12.488 225.017 14.232 225.017 16.744V16.872C225.017 19.4 223.273 21.144 220.889 21.144ZM235.1 21.144C232.044 21.144 230.94 19.464 230.732 17.512H232.076C232.252 18.872 232.796 20.024 235.1 20.024C236.572 20.024 237.708 19.16 237.708 17.864C237.708 16.568 237.116 16.024 234.94 15.672C232.54 15.304 231.116 14.552 231.116 12.52C231.116 10.76 232.636 9.416 234.796 9.416C237.084 9.416 238.508 10.536 238.732 12.568H237.484C237.212 11.128 236.38 10.536 234.796 10.536C233.228 10.536 232.412 11.32 232.412 12.392C232.412 13.512 232.828 14.088 235.164 14.44C237.708 14.84 239.052 15.608 239.052 17.768C239.052 19.688 237.372 21.144 235.1 21.144ZM243.883 21.112C242.363 21.112 241.627 20.216 241.627 18.904V13.752H240.427V12.632H241.627V10.728H242.955V12.632H244.907V13.752H242.955V18.776C242.955 19.592 243.323 19.992 243.995 19.992C244.411 19.992 244.731 19.928 245.019 19.816V20.936C244.747 21.032 244.427 21.112 243.883 21.112ZM249.201 21.144C247.649 21.144 246.417 20.392 246.417 18.68C246.417 16.744 248.465 16.088 250.609 16.088H251.809V15.48C251.809 14.152 251.297 13.592 250.017 13.592C248.865 13.592 248.225 14.072 248.097 15.096H246.769C246.945 13.192 248.465 12.488 250.081 12.488C251.681 12.488 253.137 13.144 253.137 15.48V21H251.809V19.944C251.185 20.728 250.433 21.144 249.201 21.144ZM249.329 20.088C250.737 20.088 251.809 19.368 251.809 18.072V17.032H250.657C248.977 17.032 247.745 17.448 247.745 18.68C247.745 19.544 248.161 20.088 249.329 20.088ZM258.289 21.112C256.769 21.112 256.033 20.216 256.033 18.904V13.752H254.833V12.632H256.033V10.728H257.361V12.632H259.313V13.752H257.361V18.776C257.361 19.592 257.729 19.992 258.401 19.992C258.817 19.992 259.137 19.928 259.425 19.816V20.936C259.153 21.032 258.833 21.112 258.289 21.112ZM261.465 21V12.632H262.793V21H261.465ZM262.105 10.888C261.625 10.888 261.225 10.488 261.225 10.008C261.225 9.528 261.625 9.128 262.105 9.128C262.585 9.128 262.985 9.528 262.985 10.008C262.985 10.488 262.585 10.888 262.105 10.888ZM268.999 20.04C270.679 20.04 271.735 18.776 271.735 16.888V16.776C271.735 14.84 270.663 13.592 268.999 13.592C267.319 13.592 266.263 14.84 266.263 16.76V16.888C266.263 18.792 267.303 20.04 268.999 20.04ZM268.983 21.144C266.599 21.144 264.887 19.336 264.887 16.888V16.76C264.887 14.248 266.631 12.488 268.999 12.488C271.367 12.488 273.111 14.232 273.111 16.744V16.872C273.111 19.4 271.367 21.144 268.983 21.144ZM275.167 21V12.632H276.495V13.96C276.879 13.176 277.807 12.488 279.183 12.488C280.911 12.488 282.127 13.432 282.127 15.864V21H280.799V15.768C280.799 14.296 280.175 13.64 278.831 13.64C277.599 13.64 276.495 14.424 276.495 15.928V21H275.167Z" fill="#210302"></path>
</g>
<defs>
<clipPath id="bgblur_0_18_62_clip_path" transform="translate(-2.00293 11)"><rect x="13.0029" width="285" height="32" rx="16"></rect>
</clipPath></defs>
</svg>