<svg width="505" height="32" viewBox="0 0 505 32" fill="none" xmlns="http://www.w3.org/2000/svg">
<path d="M505.006 26.2856L489.133 17.1428L489.133 26.2856L505.006 26.2856Z" fill="white"></path>
<g data-figma-bg-blur-radius="11">
<rect width="492" height="32" rx="16" transform="matrix(-1 0 0 1 492 0)" fill="white"></rect>
<path d="M16.1211 19.864H17.6891C20.6331 19.864 22.1051 18.104 22.1051 15.304V15.176C22.1051 12.536 20.8251 10.68 17.6731 10.68H16.1211V19.864ZM14.7291 21V9.56H17.7531C21.6891 9.56 23.5451 11.992 23.5451 15.176V15.32C23.5451 18.488 21.7211 21 17.7211 21H14.7291ZM25.8057 21V12.632H27.1337V21H25.8057ZM26.4457 10.888C25.9657 10.888 25.5657 10.488 25.5657 10.008C25.5657 9.528 25.9657 9.128 26.4457 9.128C26.9257 9.128 27.3257 9.528 27.3257 10.008C27.3257 10.488 26.9257 10.888 26.4457 10.888ZM29.8518 21V12.632H31.1798V14.136C31.7078 13.192 32.4278 12.536 33.9318 12.488V13.736C32.2518 13.816 31.1798 14.344 31.1798 16.408V21H29.8518ZM39.0571 21.144C36.6891 21.144 35.0091 19.48 35.0091 16.904V16.776C35.0091 14.248 36.6251 12.488 38.9291 12.488C40.8651 12.488 42.6891 13.656 42.6891 16.648V17.08H36.3851C36.4491 18.984 37.3611 20.04 39.0731 20.04C40.3691 20.04 41.1211 19.56 41.2971 18.584H42.6251C42.3371 20.264 40.9451 21.144 39.0571 21.144ZM36.4331 16.008H41.3291C41.2011 14.28 40.3051 13.592 38.9291 13.592C37.5691 13.592 36.6571 14.52 36.4331 16.008ZM48.1988 21.144C45.8628 21.144 44.1028 19.496 44.1028 16.904V16.776C44.1028 14.216 45.9268 12.488 48.1668 12.488C49.9108 12.488 51.5428 13.288 51.7988 15.416H50.4868C50.2788 14.088 49.3188 13.592 48.1668 13.592C46.6468 13.592 45.4788 14.808 45.4788 16.776V16.904C45.4788 18.952 46.5988 20.04 48.2148 20.04C49.3988 20.04 50.4708 19.352 50.6148 17.992H51.8468C51.6708 19.8 50.2148 21.144 48.1988 21.144ZM56.3958 21.112C54.8758 21.112 54.1398 20.216 54.1398 18.904V13.752H52.9398V12.632H54.1398V10.728H55.4678V12.632H57.4198V13.752H55.4678V18.776C55.4678 19.592 55.8358 19.992 56.5078 19.992C56.9238 19.992 57.2438 19.928 57.5318 19.816V20.936C57.2598 21.032 56.9398 21.112 56.3958 21.112ZM65.8697 21.144C64.3177 21.144 63.0857 20.392 63.0857 18.68C63.0857 16.744 65.1337 16.088 67.2777 16.088H68.4777V15.48C68.4777 14.152 67.9657 13.592 66.6857 13.592C65.5337 13.592 64.8937 14.072 64.7657 15.096H63.4377C63.6137 13.192 65.1337 12.488 66.7497 12.488C68.3497 12.488 69.8057 13.144 69.8057 15.48V21H68.4777V19.944C67.8537 20.728 67.1017 21.144 65.8697 21.144ZM65.9977 20.088C67.4057 20.088 68.4777 19.368 68.4777 18.072V17.032H67.3257C65.6457 17.032 64.4137 17.448 64.4137 18.68C64.4137 19.544 64.8297 20.088 65.9977 20.088ZM75.8863 21.144C73.5503 21.144 71.7903 19.496 71.7903 16.904V16.776C71.7903 14.216 73.6143 12.488 75.8543 12.488C77.5983 12.488 79.2303 13.288 79.4863 15.416H78.1743C77.9663 14.088 77.0063 13.592 75.8543 13.592C74.3343 13.592 73.1663 14.808 73.1663 16.776V16.904C73.1663 18.952 74.2863 20.04 75.9023 20.04C77.0863 20.04 78.1583 19.352 78.3023 17.992H79.5343C79.3583 19.8 77.9023 21.144 75.8863 21.144ZM85.0113 21.144C82.6753 21.144 80.9153 19.496 80.9153 16.904V16.776C80.9153 14.216 82.7393 12.488 84.9793 12.488C86.7233 12.488 88.3553 13.288 88.6113 15.416H87.2993C87.0913 14.088 86.1313 13.592 84.9793 13.592C83.4593 13.592 82.2913 14.808 82.2913 16.776V16.904C82.2913 18.952 83.4113 20.04 85.0273 20.04C86.2113 20.04 87.2833 19.352 87.4273 17.992H88.6593C88.4833 19.8 87.0273 21.144 85.0113 21.144ZM94.0883 21.144C91.7203 21.144 90.0403 19.48 90.0403 16.904V16.776C90.0403 14.248 91.6563 12.488 93.9603 12.488C95.8963 12.488 97.7203 13.656 97.7203 16.648V17.08H91.4163C91.4803 18.984 92.3923 20.04 94.1043 20.04C95.4003 20.04 96.1523 19.56 96.3283 18.584H97.6563C97.3683 20.264 95.9763 21.144 94.0883 21.144ZM91.4643 16.008H96.3603C96.2323 14.28 95.3363 13.592 93.9603 13.592C92.6003 13.592 91.6883 14.52 91.4643 16.008ZM102.428 21.144C100.428 21.144 99.2282 20.136 99.1482 18.424H100.444C100.54 19.416 101.068 20.04 102.412 20.04C103.676 20.04 104.236 19.608 104.236 18.712C104.236 17.832 103.58 17.544 102.284 17.304C100.108 16.904 99.3722 16.296 99.3722 14.84C99.3722 13.288 100.892 12.488 102.204 12.488C103.708 12.488 105.004 13.096 105.228 14.904H103.948C103.756 13.992 103.244 13.592 102.188 13.592C101.228 13.592 100.604 14.072 100.604 14.792C100.604 15.544 101.02 15.848 102.556 16.12C104.284 16.44 105.5 16.824 105.5 18.6C105.5 20.12 104.46 21.144 102.428 21.144ZM110.116 21.144C108.116 21.144 106.916 20.136 106.836 18.424H108.132C108.228 19.416 108.756 20.04 110.1 20.04C111.364 20.04 111.924 19.608 111.924 18.712C111.924 17.832 111.268 17.544 109.972 17.304C107.796 16.904 107.06 16.296 107.06 14.84C107.06 13.288 108.58 12.488 109.892 12.488C111.396 12.488 112.692 13.096 112.916 14.904H111.636C111.444 13.992 110.932 13.592 109.876 13.592C108.916 13.592 108.292 14.072 108.292 14.792C108.292 15.544 108.708 15.848 110.244 16.12C111.972 16.44 113.188 16.824 113.188 18.6C113.188 20.12 112.148 21.144 110.116 21.144ZM121.99 21.112C120.47 21.112 119.734 20.216 119.734 18.904V13.752H118.534V12.632H119.734V10.728H121.062V12.632H123.014V13.752H121.062V18.776C121.062 19.592 121.43 19.992 122.102 19.992C122.518 19.992 122.838 19.928 123.126 19.816V20.936C122.854 21.032 122.534 21.112 121.99 21.112ZM128.621 20.04C130.301 20.04 131.357 18.776 131.357 16.888V16.776C131.357 14.84 130.285 13.592 128.621 13.592C126.941 13.592 125.885 14.84 125.885 16.76V16.888C125.885 18.792 126.925 20.04 128.621 20.04ZM128.605 21.144C126.221 21.144 124.509 19.336 124.509 16.888V16.76C124.509 14.248 126.253 12.488 128.621 12.488C130.989 12.488 132.733 14.232 132.733 16.744V16.872C132.733 19.4 130.989 21.144 128.605 21.144ZM142.816 21.144C139.76 21.144 138.656 19.464 138.448 17.512H139.792C139.968 18.872 140.512 20.024 142.816 20.024C144.288 20.024 145.424 19.16 145.424 17.864C145.424 16.568 144.832 16.024 142.656 15.672C140.256 15.304 138.832 14.552 138.832 12.52C138.832 10.76 140.352 9.416 142.512 9.416C144.8 9.416 146.224 10.536 146.448 12.568H145.2C144.928 11.128 144.096 10.536 142.512 10.536C140.944 10.536 140.128 11.32 140.128 12.392C140.128 13.512 140.544 14.088 142.88 14.44C145.424 14.84 146.768 15.608 146.768 17.768C146.768 19.688 145.088 21.144 142.816 21.144ZM149.055 21V8.632H150.383V13.96C150.767 13.176 151.695 12.488 153.071 12.488C154.799 12.488 156.015 13.432 156.015 15.864V21H154.687V15.768C154.687 14.296 154.063 13.64 152.719 13.64C151.487 13.64 150.383 14.424 150.383 15.928V21H149.055ZM162.041 21.144C159.673 21.144 157.993 19.48 157.993 16.904V16.776C157.993 14.248 159.609 12.488 161.913 12.488C163.849 12.488 165.673 13.656 165.673 16.648V17.08H159.369C159.433 18.984 160.345 20.04 162.057 20.04C163.353 20.04 164.105 19.56 164.281 18.584H165.609C165.321 20.264 163.929 21.144 162.041 21.144ZM159.417 16.008H164.313C164.185 14.28 163.289 13.592 161.913 13.592C160.553 13.592 159.641 14.52 159.417 16.008ZM167.743 21V12.632H169.071V21H167.743ZM168.383 10.888C167.903 10.888 167.503 10.488 167.503 10.008C167.503 9.528 167.903 9.128 168.383 9.128C168.863 9.128 169.263 9.528 169.263 10.008C169.263 10.488 168.863 10.888 168.383 10.888ZM171.789 21V8.632H173.117V16.488L176.589 12.632H178.141L174.557 16.52L178.445 21H176.829L173.117 16.664V21H171.789ZM180.039 21V8.632H181.367V13.96C181.751 13.176 182.679 12.488 184.055 12.488C185.783 12.488 186.999 13.432 186.999 15.864V21H185.671V15.768C185.671 14.296 185.047 13.64 183.703 13.64C182.471 13.64 181.367 14.424 181.367 15.928V21H180.039ZM192.94 21V20.776L199.42 10.696H193.516V9.56H201.34V9.768L195.036 19.816H201.244V21H192.94ZM205.448 21.144C203.896 21.144 202.664 20.392 202.664 18.68C202.664 16.744 204.712 16.088 206.856 16.088H208.056V15.48C208.056 14.152 207.544 13.592 206.264 13.592C205.112 13.592 204.472 14.072 204.344 15.096H203.016C203.192 13.192 204.712 12.488 206.328 12.488C207.928 12.488 209.384 13.144 209.384 15.48V21H208.056V19.944C207.432 20.728 206.68 21.144 205.448 21.144ZM205.576 20.088C206.984 20.088 208.056 19.368 208.056 18.072V17.032H206.904C205.224 17.032 203.992 17.448 203.992 18.68C203.992 19.544 204.408 20.088 205.576 20.088ZM212.51 23.912L214.094 20.136L210.814 12.632H212.238L214.798 18.632L217.118 12.632H218.478L213.854 23.912H212.51ZM223.416 21.144C221.048 21.144 219.368 19.48 219.368 16.904V16.776C219.368 14.248 220.984 12.488 223.288 12.488C225.224 12.488 227.048 13.656 227.048 16.648V17.08H220.744C220.808 18.984 221.72 20.04 223.432 20.04C224.728 20.04 225.48 19.56 225.656 18.584H226.984C226.696 20.264 225.304 21.144 223.416 21.144ZM220.792 16.008H225.688C225.56 14.28 224.664 13.592 223.288 13.592C221.928 13.592 221.016 14.52 220.792 16.008ZM232.238 21.144C230.046 21.144 228.462 19.592 228.462 16.984V16.856C228.462 14.296 230.062 12.488 232.366 12.488C233.758 12.488 234.622 13.16 235.102 13.976V8.632H236.43V21H235.102V19.56C234.622 20.376 233.454 21.144 232.238 21.144ZM232.382 20.04C233.934 20.04 235.15 19.016 235.15 16.872V16.744C235.15 14.6 234.126 13.592 232.494 13.592C230.83 13.592 229.838 14.76 229.838 16.792V16.92C229.838 19.032 230.974 20.04 232.382 20.04ZM243.448 21V9.56H246.888C249.08 9.56 250.888 10.456 250.888 12.744V12.808C250.888 14.696 249.624 15.624 248.056 15.928L251.56 21H250.008L246.6 16.024H244.84V21H243.448ZM244.84 14.92H246.984C248.616 14.92 249.496 14.216 249.496 12.808V12.744C249.496 11.192 248.536 10.68 246.984 10.68H244.84V14.92ZM256.652 20.04C258.332 20.04 259.388 18.776 259.388 16.888V16.776C259.388 14.84 258.316 13.592 256.652 13.592C254.972 13.592 253.916 14.84 253.916 16.76V16.888C253.916 18.792 254.956 20.04 256.652 20.04ZM256.636 21.144C254.252 21.144 252.54 19.336 252.54 16.888V16.76C252.54 14.248 254.284 12.488 256.652 12.488C259.02 12.488 260.764 14.232 260.764 16.744V16.872C260.764 19.4 259.02 21.144 256.636 21.144ZM264.917 21.144C263.365 21.144 262.133 20.392 262.133 18.68C262.133 16.744 264.181 16.088 266.325 16.088H267.525V15.48C267.525 14.152 267.013 13.592 265.733 13.592C264.581 13.592 263.941 14.072 263.813 15.096H262.485C262.661 13.192 264.181 12.488 265.797 12.488C267.397 12.488 268.853 13.144 268.853 15.48V21H267.525V19.944C266.901 20.728 266.149 21.144 264.917 21.144ZM265.045 20.088C266.453 20.088 267.525 19.368 267.525 18.072V17.032H266.373C264.693 17.032 263.461 17.448 263.461 18.68C263.461 19.544 263.877 20.088 265.045 20.088ZM274.613 21.144C272.421 21.144 270.837 19.592 270.837 16.984V16.856C270.837 14.296 272.437 12.488 274.741 12.488C276.133 12.488 276.997 13.16 277.477 13.976V8.632H278.805V21H277.477V19.56C276.997 20.376 275.829 21.144 274.613 21.144ZM274.757 20.04C276.309 20.04 277.525 19.016 277.525 16.872V16.744C277.525 14.6 276.501 13.592 274.869 13.592C273.205 13.592 272.213 14.76 272.213 16.792V16.92C272.213 19.032 273.349 20.04 274.757 20.04ZM287.823 21.144C286.271 21.144 285.039 20.392 285.039 18.68C285.039 16.744 287.087 16.088 289.231 16.088H290.431V15.48C290.431 14.152 289.919 13.592 288.639 13.592C287.487 13.592 286.847 14.072 286.719 15.096H285.391C285.567 13.192 287.087 12.488 288.703 12.488C290.303 12.488 291.759 13.144 291.759 15.48V21H290.431V19.944C289.807 20.728 289.055 21.144 287.823 21.144ZM287.951 20.088C289.359 20.088 290.431 19.368 290.431 18.072V17.032H289.279C287.599 17.032 286.367 17.448 286.367 18.68C286.367 19.544 286.783 20.088 287.951 20.088ZM294.367 21V12.632H295.695V13.96C296.079 13.176 297.007 12.488 298.383 12.488C300.111 12.488 301.327 13.432 301.327 15.864V21H299.999V15.768C299.999 14.296 299.375 13.64 298.031 13.64C296.799 13.64 295.695 14.424 295.695 15.928V21H294.367ZM307.082 21.144C304.89 21.144 303.306 19.592 303.306 16.984V16.856C303.306 14.296 304.906 12.488 307.21 12.488C308.602 12.488 309.466 13.16 309.946 13.976V8.632H311.274V21H309.946V19.56C309.466 20.376 308.298 21.144 307.082 21.144ZM307.226 20.04C308.778 20.04 309.994 19.016 309.994 16.872V16.744C309.994 14.6 308.97 13.592 307.338 13.592C305.674 13.592 304.682 14.76 304.682 16.792V16.92C304.682 19.032 305.818 20.04 307.226 20.04ZM319.06 21.144C318.196 21.144 317.764 21 317.46 20.84V19.688C317.876 19.864 318.292 20.008 318.98 20.008C320.116 20.008 320.836 19.368 320.836 17.832V9.56H322.228V17.896C322.228 20.184 320.804 21.144 319.06 21.144ZM327.746 21.144C326.082 21.144 324.834 20.232 324.834 17.928V12.632H326.162V17.864C326.162 19.336 326.786 19.992 328.098 19.992C329.282 19.992 330.402 19.208 330.402 17.704V12.632H331.73V21H330.402V19.672C330.018 20.456 329.09 21.144 327.746 21.144ZM334.414 21V12.632H335.742V13.912C336.126 13.128 337.038 12.488 338.238 12.488C339.31 12.488 340.254 12.936 340.686 14.056C341.262 12.968 342.51 12.488 343.55 12.488C345.054 12.488 346.366 13.384 346.366 15.816V21H345.038V15.72C345.038 14.248 344.414 13.64 343.262 13.64C342.174 13.64 341.054 14.376 341.054 15.88V21H339.726V15.72C339.726 14.248 339.102 13.64 337.95 13.64C336.862 13.64 335.742 14.376 335.742 15.88V21H334.414ZM352.401 21.144C350.033 21.144 348.353 19.48 348.353 16.904V16.776C348.353 14.248 349.969 12.488 352.273 12.488C354.209 12.488 356.033 13.656 356.033 16.648V17.08H349.729C349.793 18.984 350.705 20.04 352.417 20.04C353.713 20.04 354.465 19.56 354.641 18.584H355.969C355.681 20.264 354.289 21.144 352.401 21.144ZM349.777 16.008H354.673C354.545 14.28 353.649 13.592 352.273 13.592C350.913 13.592 350.001 14.52 349.777 16.008ZM358.103 21V12.632H359.431V21H358.103ZM358.743 10.888C358.263 10.888 357.863 10.488 357.863 10.008C357.863 9.528 358.263 9.128 358.743 9.128C359.223 9.128 359.623 9.528 359.623 10.008C359.623 10.488 359.223 10.888 358.743 10.888ZM362.149 21V12.632H363.477V14.136C364.005 13.192 364.725 12.536 366.229 12.488V13.736C364.549 13.816 363.477 14.344 363.477 16.408V21H362.149ZM370.182 21.144C368.63 21.144 367.398 20.392 367.398 18.68C367.398 16.744 369.446 16.088 371.59 16.088H372.79V15.48C372.79 14.152 372.278 13.592 370.998 13.592C369.846 13.592 369.206 14.072 369.078 15.096H367.75C367.926 13.192 369.446 12.488 371.062 12.488C372.662 12.488 374.118 13.144 374.118 15.48V21H372.79V19.944C372.166 20.728 371.414 21.144 370.182 21.144ZM370.31 20.088C371.718 20.088 372.79 19.368 372.79 18.072V17.032H371.638C369.958 17.032 368.726 17.448 368.726 18.68C368.726 19.544 369.142 20.088 370.31 20.088ZM376.727 21V8.632H378.055V13.96C378.439 13.176 379.367 12.488 380.743 12.488C382.471 12.488 383.687 13.432 383.687 15.864V21H382.359V15.768C382.359 14.296 381.735 13.64 380.391 13.64C379.159 13.64 378.055 14.424 378.055 15.928V21H376.727ZM395.596 21.144C392.076 21.144 390.06 18.696 390.06 15.352V15.224C390.06 11.88 392.316 9.384 395.596 9.384C397.868 9.384 399.9 10.44 400.252 13.016H398.86C398.54 11.192 397.292 10.488 395.628 10.488C393.004 10.488 391.5 12.408 391.5 15.208V15.336C391.5 18.168 392.908 20.024 395.596 20.024C398.076 20.024 399.148 18.408 399.196 16.376H395.852V15.224H400.556V16.072C400.556 19.384 398.524 21.144 395.596 21.144ZM404.885 21.144C403.333 21.144 402.101 20.392 402.101 18.68C402.101 16.744 404.149 16.088 406.293 16.088H407.493V15.48C407.493 14.152 406.981 13.592 405.701 13.592C404.549 13.592 403.909 14.072 403.781 15.096H402.453C402.629 13.192 404.149 12.488 405.765 12.488C407.365 12.488 408.821 13.144 408.821 15.48V21H407.493V19.944C406.869 20.728 406.117 21.144 404.885 21.144ZM405.013 20.088C406.421 20.088 407.493 19.368 407.493 18.072V17.032H406.341C404.661 17.032 403.429 17.448 403.429 18.68C403.429 19.544 403.845 20.088 405.013 20.088ZM411.43 21V12.632H412.758V14.136C413.286 13.192 414.006 12.536 415.51 12.488V13.736C413.83 13.816 412.758 14.344 412.758 16.408V21H411.43ZM420.363 21.144C418.171 21.144 416.587 19.592 416.587 16.984V16.856C416.587 14.296 418.187 12.488 420.491 12.488C421.883 12.488 422.747 13.16 423.227 13.976V8.632H424.555V21H423.227V19.56C422.747 20.376 421.579 21.144 420.363 21.144ZM420.507 20.04C422.059 20.04 423.275 19.016 423.275 16.872V16.744C423.275 14.6 422.251 13.592 420.619 13.592C418.955 13.592 417.963 14.76 417.963 16.792V16.92C417.963 19.032 419.099 20.04 420.507 20.04ZM430.666 21.144C428.298 21.144 426.618 19.48 426.618 16.904V16.776C426.618 14.248 428.234 12.488 430.538 12.488C432.474 12.488 434.298 13.656 434.298 16.648V17.08H427.994C428.058 18.984 428.97 20.04 430.682 20.04C431.978 20.04 432.73 19.56 432.906 18.584H434.234C433.946 20.264 432.554 21.144 430.666 21.144ZM428.042 16.008H432.938C432.81 14.28 431.914 13.592 430.538 13.592C429.178 13.592 428.266 14.52 428.042 16.008ZM436.336 21V12.632H437.664V13.96C438.048 13.176 438.976 12.488 440.352 12.488C442.08 12.488 443.296 13.432 443.296 15.864V21H441.968V15.768C441.968 14.296 441.344 13.64 440 13.64C438.768 13.64 437.664 14.424 437.664 15.928V21H436.336ZM455.013 21.144C451.701 21.144 449.669 18.872 449.669 15.352V15.224C449.669 11.832 451.941 9.384 455.045 9.384C457.429 9.384 459.445 10.648 459.685 13.128H458.309C458.021 11.384 457.013 10.488 455.061 10.488C452.693 10.488 451.109 12.328 451.109 15.208V15.336C451.109 18.248 452.581 20.008 455.045 20.008C456.917 20.008 458.213 19.064 458.501 17.208H459.797C459.397 19.848 457.573 21.144 455.013 21.144ZM461.853 21V12.632H463.181V21H461.853ZM462.493 10.888C462.013 10.888 461.613 10.488 461.613 10.008C461.613 9.528 462.013 9.128 462.493 9.128C462.973 9.128 463.373 9.528 463.373 10.008C463.373 10.488 462.973 10.888 462.493 10.888ZM468.443 21.112C466.923 21.112 466.187 20.216 466.187 18.904V13.752H464.987V12.632H466.187V10.728H467.515V12.632H469.467V13.752H467.515V18.776C467.515 19.592 467.883 19.992 468.555 19.992C468.971 19.992 469.291 19.928 469.579 19.816V20.936C469.307 21.032 468.987 21.112 468.443 21.112ZM472.338 23.912L473.922 20.136L470.642 12.632H472.066L474.626 18.632L476.946 12.632H478.306L473.682 23.912H472.338Z" fill="#210302"></path>
</g>
<defs>
<clipPath id="bgblur_0_18_50_clip_path" transform="translate(11 11)"><rect width="492" height="32" rx="16" transform="matrix(-1 0 0 1 492 0)"></rect>
</clipPath></defs>
</svg>