<svg xmlns="http://www.w3.org/2000/svg" width="52.868" height="27.021" viewBox="0 0 52.868 27.021" fill="none">
  <path d="M 2.041 23.687 C 2.651 23.826 3.143 24.326 3.278 24.945 C 3.548 26.176 2.489 27.252 1.279 26.978 C 0.67 26.84 0.178 26.339 0.043 25.72 C -0.227 24.489 0.832 23.413 2.041 23.687 Z M 2.041 0.043 C 0.832 -0.231 -0.227 0.845 0.043 2.076 C 0.179 2.696 0.671 3.197 1.279 3.334 C 2.489 3.609 3.548 2.532 3.278 1.301 C 3.142 0.681 2.65 0.181 2.041 0.043 Z M 2.041 5.799 C 0.831 5.524 -0.228 6.601 0.043 7.832 C 0.178 8.452 0.671 8.953 1.279 9.09 C 2.488 9.364 3.546 8.287 3.278 7.058 C 3.141 6.437 2.65 5.937 2.041 5.799 Z M 2.041 11.865 C 0.832 11.591 -0.227 12.668 0.043 13.898 C 0.179 14.519 0.671 15.019 1.279 15.156 C 2.489 15.43 3.548 14.354 3.278 13.123 C 3.142 12.503 2.65 12.004 2.041 11.865 Z M 2.041 17.932 C 0.831 17.657 -0.228 18.734 0.043 19.965 C 0.178 20.585 0.671 21.086 1.279 21.223 C 2.488 21.497 3.546 20.421 3.278 19.191 C 3.141 18.571 2.65 18.07 2.041 17.932 Z M 8.004 11.865 C 6.796 11.591 5.737 12.669 6.006 13.898 C 6.143 14.519 6.634 15.019 7.243 15.156 C 8.453 15.431 9.513 14.354 9.242 13.123 C 9.106 12.503 8.613 12.002 8.004 11.865 Z M 13.97 11.865 C 12.76 11.59 11.701 12.668 11.971 13.898 C 12.108 14.519 12.6 15.019 13.208 15.156 C 14.418 15.43 15.476 14.353 15.207 13.123 C 15.07 12.503 14.579 12.004 13.97 11.865 Z M 33.697 23.687 C 32.488 23.413 31.429 24.489 31.698 25.72 C 31.835 26.34 32.327 26.841 32.935 26.978 C 34.145 27.252 35.204 26.176 34.934 24.945 C 34.798 24.325 34.306 23.825 33.697 23.687 Z M 33.697 0.043 C 32.488 -0.231 31.429 0.845 31.698 2.076 C 31.835 2.696 32.327 3.197 32.935 3.334 C 34.145 3.609 35.204 2.532 34.934 1.301 C 34.798 0.681 34.306 0.181 33.697 0.043 Z M 33.697 5.799 C 32.487 5.524 31.428 6.601 31.698 7.832 C 31.834 8.452 32.327 8.953 32.935 9.09 C 34.144 9.364 35.202 8.287 34.934 7.058 C 34.797 6.437 34.306 5.937 33.697 5.799 Z M 33.697 11.865 C 32.488 11.591 31.429 12.668 31.698 13.898 C 31.835 14.519 32.327 15.019 32.935 15.156 C 34.145 15.43 35.204 14.354 34.934 13.123 C 34.798 12.503 34.306 12.004 33.697 11.865 Z M 33.697 17.932 C 32.487 17.657 31.428 18.734 31.698 19.965 C 31.834 20.585 32.327 21.086 32.935 21.223 C 34.144 21.497 35.202 20.421 34.934 19.191 C 34.797 18.571 34.306 18.07 33.697 17.932 Z M 39.659 11.865 C 38.45 11.591 37.392 12.669 37.662 13.898 C 37.798 14.519 38.289 15.019 38.897 15.156 C 40.107 15.431 41.168 14.354 40.897 13.123 C 40.76 12.503 40.268 12.002 39.659 11.865 Z M 45.625 11.865 C 44.415 11.59 43.356 12.668 43.626 13.898 C 43.762 14.519 44.254 15.019 44.863 15.156 C 46.073 15.43 47.131 14.353 46.861 13.123 C 46.725 12.503 46.233 12.004 45.625 11.865 Z M 51.588 23.687 C 50.379 23.413 49.32 24.489 49.589 25.72 C 49.726 26.34 50.218 26.841 50.826 26.978 C 52.036 27.252 53.095 26.176 52.825 24.945 C 52.689 24.325 52.197 23.825 51.588 23.687 Z M 51.588 0.043 C 50.379 -0.231 49.32 0.845 49.589 2.076 C 49.726 2.696 50.218 3.197 50.826 3.334 C 52.036 3.609 53.095 2.532 52.825 1.301 C 52.689 0.681 52.197 0.181 51.588 0.043 Z M 51.589 5.799 C 50.379 5.524 49.32 6.601 49.591 7.832 C 49.726 8.452 50.219 8.953 50.827 9.09 C 52.036 9.364 53.094 8.287 52.826 7.058 C 52.689 6.437 52.198 5.937 51.589 5.799 Z M 51.588 11.865 C 50.379 11.591 49.32 12.668 49.589 13.898 C 49.726 14.519 50.218 15.019 50.826 15.156 C 52.036 15.43 53.095 14.354 52.825 13.123 C 52.689 12.503 52.197 12.004 51.588 11.865 Z M 51.589 17.932 C 50.379 17.657 49.32 18.734 49.591 19.965 C 49.726 20.585 50.219 21.086 50.827 21.223 C 52.036 21.497 53.094 20.421 52.826 19.191 C 52.689 18.571 52.198 18.07 51.589 17.932 Z M 19.872 23.687 C 18.663 23.413 17.604 24.489 17.873 25.72 C 18.01 26.34 18.501 26.841 19.11 26.978 C 20.32 27.252 21.379 26.176 21.109 24.945 C 20.973 24.325 20.481 23.825 19.872 23.687 Z M 19.872 0.043 C 18.663 -0.231 17.604 0.845 17.873 2.076 C 18.01 2.696 18.501 3.197 19.11 3.334 C 20.32 3.609 21.379 2.532 21.109 1.301 C 20.973 0.681 20.481 0.181 19.872 0.043 Z M 19.873 5.799 C 18.663 5.524 17.604 6.601 17.874 7.832 C 18.01 8.452 18.503 8.953 19.111 9.09 C 20.32 9.364 21.378 8.287 21.11 7.058 C 20.973 6.437 20.482 5.937 19.873 5.799 Z M 19.872 11.865 C 18.663 11.591 17.604 12.668 17.873 13.898 C 18.01 14.519 18.501 15.019 19.11 15.156 C 20.32 15.43 21.379 14.354 21.109 13.123 C 20.973 12.503 20.481 12.004 19.872 11.865 Z M 19.873 17.932 C 18.663 17.657 17.604 18.734 17.874 19.965 C 18.01 20.585 18.503 21.086 19.111 21.223 C 20.32 21.497 21.378 20.421 21.11 19.191 C 20.973 18.571 20.482 18.07 19.873 17.932 Z M 28.327 13.597 C 28.313 14.519 28.17 15.172 27.889 15.59 L 28.87 16.705 L 28.267 16.705 L 28.262 16.699 L 27.632 15.974 C 27.156 16.526 26.501 16.83 25.785 16.83 C 24.718 16.83 23.944 16.08 23.944 15.046 C 23.944 14.423 24.255 13.881 24.796 13.556 L 25.263 13.276 L 24.827 12.78 C 24.533 12.447 24.396 12.104 24.396 11.7 C 24.396 10.895 25.027 10.287 25.863 10.287 C 26.699 10.287 27.358 10.881 27.358 11.7 C 27.358 12.268 27.108 12.694 26.593 13.004 L 25.969 13.381 L 27.569 15.227 C 27.784 14.823 27.876 14.322 27.876 13.563 L 27.876 13.165 L 28.988 13.165 L 28.988 13.598 L 28.327 13.597 Z M 25.091 13.904 C 24.666 14.156 24.422 14.572 24.422 15.045 C 24.422 15.79 25.007 16.351 25.783 16.351 C 26.414 16.351 26.913 16.109 27.306 15.61 L 25.564 13.62 L 25.091 13.904 Z M 24.866 11.699 C 24.866 11.97 24.986 12.251 25.225 12.535 L 25.667 13.053 L 26.358 12.619 C 26.699 12.406 26.895 12.07 26.895 11.699 C 26.895 11.128 26.471 10.728 25.863 10.728 C 25.294 10.728 24.866 11.145 24.866 11.699 Z" fill="currentColor" fill-rule="nonzero"></path>
</svg>