<svg width="153" height="32" viewBox="0 0 153 32" fill="none" xmlns="http://www.w3.org/2000/svg">
<path d="M153.007 26.2856L137.134 17.1428L137.134 26.2856L153.007 26.2856Z" fill="white"></path>
<g data-figma-bg-blur-radius="11">
<rect width="140" height="32" rx="16" transform="matrix(-1 0 0 1 140 0)" fill="white"></rect>
<path d="M23.2448 21V9.56H26.6848C28.8128 9.56 30.3648 10.264 30.3648 12.52V12.584C30.3648 13.624 29.9488 14.552 28.6368 15C30.3008 15.4 30.9248 16.248 30.9248 17.736V17.8C30.9248 19.96 29.4528 21 27.1648 21H23.2448ZM24.6048 19.912H27.1328C28.7968 19.912 29.5648 19.176 29.5648 17.784V17.72C29.5648 16.312 28.7808 15.64 26.9408 15.64H24.6048V19.912ZM24.6048 14.552H26.6848C28.3648 14.552 29.0048 13.944 29.0048 12.536V12.472C29.0048 11.176 28.2528 10.648 26.6528 10.648H24.6048V14.552ZM35.934 21.144C34.27 21.144 33.022 20.232 33.022 17.928V12.632H34.35V17.864C34.35 19.336 34.974 19.992 36.286 19.992C37.47 19.992 38.59 19.208 38.59 17.704V12.632H39.918V21H38.59V19.672C38.206 20.456 37.278 21.144 35.934 21.144ZM45.194 21.144C43.194 21.144 41.994 20.136 41.914 18.424H43.21C43.306 19.416 43.834 20.04 45.178 20.04C46.442 20.04 47.002 19.608 47.002 18.712C47.002 17.832 46.346 17.544 45.05 17.304C42.874 16.904 42.138 16.296 42.138 14.84C42.138 13.288 43.658 12.488 44.97 12.488C46.474 12.488 47.77 13.096 47.994 14.904H46.714C46.522 13.992 46.01 13.592 44.954 13.592C43.994 13.592 43.37 14.072 43.37 14.792C43.37 15.544 43.786 15.848 45.322 16.12C47.05 16.44 48.266 16.824 48.266 18.6C48.266 20.12 47.226 21.144 45.194 21.144ZM50.3215 21V12.632H51.6495V21H50.3215ZM50.9615 10.888C50.4815 10.888 50.0815 10.488 50.0815 10.008C50.0815 9.528 50.4815 9.128 50.9615 9.128C51.4415 9.128 51.8415 9.528 51.8415 10.008C51.8415 10.488 51.4415 10.888 50.9615 10.888ZM54.3676 21V12.632H55.6956V13.96C56.0796 13.176 57.0076 12.488 58.3836 12.488C60.1116 12.488 61.3276 13.432 61.3276 15.864V21H59.9996V15.768C59.9996 14.296 59.3756 13.64 58.0316 13.64C56.7996 13.64 55.6956 14.424 55.6956 15.928V21H54.3676ZM67.3541 21.144C64.9861 21.144 63.3061 19.48 63.3061 16.904V16.776C63.3061 14.248 64.9221 12.488 67.2261 12.488C69.1621 12.488 70.9861 13.656 70.9861 16.648V17.08H64.6821C64.7461 18.984 65.6581 20.04 67.3701 20.04C68.6661 20.04 69.4181 19.56 69.5941 18.584H70.9221C70.6341 20.264 69.2421 21.144 67.3541 21.144ZM64.7301 16.008H69.6261C69.4981 14.28 68.6021 13.592 67.2261 13.592C65.8661 13.592 64.9541 14.52 64.7301 16.008ZM75.694 21.144C73.694 21.144 72.494 20.136 72.414 18.424H73.71C73.806 19.416 74.334 20.04 75.678 20.04C76.942 20.04 77.502 19.608 77.502 18.712C77.502 17.832 76.846 17.544 75.55 17.304C73.374 16.904 72.638 16.296 72.638 14.84C72.638 13.288 74.158 12.488 75.47 12.488C76.974 12.488 78.27 13.096 78.494 14.904H77.214C77.022 13.992 76.51 13.592 75.454 13.592C74.494 13.592 73.87 14.072 73.87 14.792C73.87 15.544 74.286 15.848 75.822 16.12C77.55 16.44 78.766 16.824 78.766 18.6C78.766 20.12 77.726 21.144 75.694 21.144ZM83.3815 21.144C81.3815 21.144 80.1815 20.136 80.1015 18.424H81.3975C81.4935 19.416 82.0215 20.04 83.3655 20.04C84.6295 20.04 85.1895 19.608 85.1895 18.712C85.1895 17.832 84.5335 17.544 83.2375 17.304C81.0615 16.904 80.3255 16.296 80.3255 14.84C80.3255 13.288 81.8455 12.488 83.1575 12.488C84.6615 12.488 85.9575 13.096 86.1815 14.904H84.9015C84.7095 13.992 84.1975 13.592 83.1415 13.592C82.1815 13.592 81.5575 14.072 81.5575 14.792C81.5575 15.544 81.9735 15.848 83.5095 16.12C85.2375 16.44 86.4535 16.824 86.4535 18.6C86.4535 20.12 85.4135 21.144 83.3815 21.144ZM92.8073 21V9.56H96.2473C98.3753 9.56 99.9273 10.264 99.9273 12.52V12.584C99.9273 13.624 99.5113 14.552 98.1993 15C99.8633 15.4 100.487 16.248 100.487 17.736V17.8C100.487 19.96 99.0153 21 96.7273 21H92.8073ZM94.1673 19.912H96.6953C98.3593 19.912 99.1273 19.176 99.1273 17.784V17.72C99.1273 16.312 98.3433 15.64 96.5033 15.64H94.1673V19.912ZM94.1673 14.552H96.2473C97.9273 14.552 98.5673 13.944 98.5673 12.536V12.472C98.5673 11.176 97.8153 10.648 96.2153 10.648H94.1673V14.552ZM104.76 21.144C103.208 21.144 101.976 20.392 101.976 18.68C101.976 16.744 104.024 16.088 106.168 16.088H107.368V15.48C107.368 14.152 106.856 13.592 105.576 13.592C104.424 13.592 103.784 14.072 103.656 15.096H102.328C102.504 13.192 104.024 12.488 105.64 12.488C107.24 12.488 108.696 13.144 108.696 15.48V21H107.368V19.944C106.744 20.728 105.992 21.144 104.76 21.144ZM104.888 20.088C106.296 20.088 107.368 19.368 107.368 18.072V17.032H106.216C104.536 17.032 103.304 17.448 103.304 18.68C103.304 19.544 103.72 20.088 104.888 20.088ZM111.823 23.912L113.407 20.136L110.127 12.632H111.551L114.111 18.632L116.431 12.632H117.791L113.167 23.912H111.823Z" fill="#210302"></path>
</g>
<defs>
<clipPath id="bgblur_0_18_54_clip_path" transform="translate(10.9998 11)"><rect width="140" height="32" rx="16" transform="matrix(-1 0 0 1 140 0)"></rect>
</clipPath></defs>
</svg>