<svg width="339" height="32" viewBox="0 0 339 32" fill="none" xmlns="http://www.w3.org/2000/svg">
<path d="M8.96454e-05 26.2856L15.8727 17.1428L15.8727 26.2856L8.96454e-05 26.2856Z" fill="white"></path>
<g data-figma-bg-blur-radius="11">
<rect x="13.0034" width="326" height="32" rx="16" fill="white"></rect>
<path d="M31.226 21.144C28.762 21.144 27.578 19.784 27.418 17.912H28.746C28.97 19.16 29.466 20.024 31.21 20.024C32.762 20.024 33.722 18.984 33.722 17.256C33.722 15.64 32.778 14.584 31.322 14.584C29.994 14.584 29.226 15 28.618 15.688H28.106V9.56H34.538V10.76H29.258V14.248C29.722 13.816 30.506 13.464 31.594 13.464C33.642 13.464 35.146 14.92 35.146 17.256C35.146 19.672 33.402 21.144 31.226 21.144ZM37.0806 17.224V15.976H40.5046V17.224H37.0806ZM42.8084 21V12.632H44.1364V13.912C44.5204 13.128 45.4324 12.488 46.6324 12.488C47.7044 12.488 48.6484 12.936 49.0804 14.056C49.6564 12.968 50.9044 12.488 51.9444 12.488C53.4484 12.488 54.7604 13.384 54.7604 15.816V21H53.4324V15.72C53.4324 14.248 52.8084 13.64 51.6564 13.64C50.5684 13.64 49.4484 14.376 49.4484 15.88V21H48.1204V15.72C48.1204 14.248 47.4964 13.64 46.3444 13.64C45.2564 13.64 44.1364 14.376 44.1364 15.88V21H42.8084ZM57.4029 21V12.632H58.7309V21H57.4029ZM58.0429 10.888C57.5629 10.888 57.1629 10.488 57.1629 10.008C57.1629 9.528 57.5629 9.128 58.0429 9.128C58.5229 9.128 58.9229 9.528 58.9229 10.008C58.9229 10.488 58.5229 10.888 58.0429 10.888ZM61.449 21V12.632H62.777V13.96C63.161 13.176 64.089 12.488 65.465 12.488C67.193 12.488 68.409 13.432 68.409 15.864V21H67.081V15.768C67.081 14.296 66.457 13.64 65.113 13.64C63.881 13.64 62.777 14.424 62.777 15.928V21H61.449ZM73.8435 21.144C72.1795 21.144 70.9315 20.232 70.9315 17.928V12.632H72.2595V17.864C72.2595 19.336 72.8835 19.992 74.1955 19.992C75.3795 19.992 76.4995 19.208 76.4995 17.704V12.632H77.8275V21H76.4995V19.672C76.1155 20.456 75.1875 21.144 73.8435 21.144ZM83.0555 21.112C81.5355 21.112 80.7995 20.216 80.7995 18.904V13.752H79.5995V12.632H80.7995V10.728H82.1275V12.632H84.0795V13.752H82.1275V18.776C82.1275 19.592 82.4955 19.992 83.1675 19.992C83.5835 19.992 83.9035 19.928 84.1915 19.816V20.936C83.9195 21.032 83.5995 21.112 83.0555 21.112ZM89.623 21.144C87.255 21.144 85.575 19.48 85.575 16.904V16.776C85.575 14.248 87.191 12.488 89.495 12.488C91.431 12.488 93.255 13.656 93.255 16.648V17.08H86.951C87.015 18.984 87.927 20.04 89.639 20.04C90.935 20.04 91.687 19.56 91.863 18.584H93.191C92.903 20.264 91.511 21.144 89.623 21.144ZM86.999 16.008H91.895C91.767 14.28 90.871 13.592 89.495 13.592C88.135 13.592 87.223 14.52 86.999 16.008ZM101.207 21L98.6311 12.632H100.071L102.023 19.368L104.055 12.632H105.207L107.111 19.368L109.079 12.632H110.439L107.831 21H106.359L104.615 14.728L102.663 21H101.207ZM114.17 21.144C112.618 21.144 111.386 20.392 111.386 18.68C111.386 16.744 113.434 16.088 115.578 16.088H116.778V15.48C116.778 14.152 116.266 13.592 114.986 13.592C113.834 13.592 113.194 14.072 113.066 15.096H111.738C111.914 13.192 113.434 12.488 115.05 12.488C116.65 12.488 118.106 13.144 118.106 15.48V21H116.778V19.944C116.154 20.728 115.402 21.144 114.17 21.144ZM114.298 20.088C115.706 20.088 116.778 19.368 116.778 18.072V17.032H115.626C113.946 17.032 112.714 17.448 112.714 18.68C112.714 19.544 113.13 20.088 114.298 20.088ZM120.747 21V8.632H122.091V21H120.747ZM124.808 21V8.632H126.136V16.488L129.608 12.632H131.16L127.576 16.52L131.464 21H129.848L126.136 16.664V21H124.808ZM139.837 21.112C138.317 21.112 137.581 20.216 137.581 18.904V13.752H136.381V12.632H137.581V10.728H138.909V12.632H140.861V13.752H138.909V18.776C138.909 19.592 139.277 19.992 139.949 19.992C140.365 19.992 140.685 19.928 140.973 19.816V20.936C140.701 21.032 140.381 21.112 139.837 21.112ZM146.468 20.04C148.148 20.04 149.204 18.776 149.204 16.888V16.776C149.204 14.84 148.132 13.592 146.468 13.592C144.788 13.592 143.732 14.84 143.732 16.76V16.888C143.732 18.792 144.772 20.04 146.468 20.04ZM146.452 21.144C144.068 21.144 142.356 19.336 142.356 16.888V16.76C142.356 14.248 144.1 12.488 146.468 12.488C148.836 12.488 150.58 14.232 150.58 16.744V16.872C150.58 19.4 148.836 21.144 146.452 21.144ZM156.967 21V9.56H163.639V10.696H158.359V14.584H162.615V15.72H158.359V19.864H163.927V21H156.967ZM165.933 21V12.632H167.261V13.912C167.645 13.128 168.557 12.488 169.757 12.488C170.829 12.488 171.773 12.936 172.205 14.056C172.781 12.968 174.029 12.488 175.069 12.488C176.573 12.488 177.885 13.384 177.885 15.816V21H176.557V15.72C176.557 14.248 175.933 13.64 174.781 13.64C173.693 13.64 172.573 14.376 172.573 15.88V21H171.245V15.72C171.245 14.248 170.621 13.64 169.469 13.64C168.381 13.64 167.261 14.376 167.261 15.88V21H165.933ZM180.528 21V12.632H181.856V21H180.528ZM181.168 10.888C180.688 10.888 180.288 10.488 180.288 10.008C180.288 9.528 180.688 9.128 181.168 9.128C181.648 9.128 182.048 9.528 182.048 10.008C182.048 10.488 181.648 10.888 181.168 10.888ZM184.574 21V12.632H185.902V14.136C186.43 13.192 187.15 12.536 188.654 12.488V13.736C186.974 13.816 185.902 14.344 185.902 16.408V21H184.574ZM192.607 21.144C191.055 21.144 189.823 20.392 189.823 18.68C189.823 16.744 191.871 16.088 194.015 16.088H195.215V15.48C195.215 14.152 194.703 13.592 193.423 13.592C192.271 13.592 191.631 14.072 191.503 15.096H190.175C190.351 13.192 191.871 12.488 193.487 12.488C195.087 12.488 196.543 13.144 196.543 15.48V21H195.215V19.944C194.591 20.728 193.839 21.144 192.607 21.144ZM192.735 20.088C194.143 20.088 195.215 19.368 195.215 18.072V17.032H194.063C192.383 17.032 191.151 17.448 191.151 18.68C191.151 19.544 191.567 20.088 192.735 20.088ZM201.696 21.112C200.176 21.112 199.44 20.216 199.44 18.904V13.752H198.24V12.632H199.44V10.728H200.768V12.632H202.72V13.752H200.768V18.776C200.768 19.592 201.136 19.992 201.808 19.992C202.224 19.992 202.544 19.928 202.832 19.816V20.936C202.56 21.032 202.24 21.112 201.696 21.112ZM208.264 21.144C205.896 21.144 204.216 19.48 204.216 16.904V16.776C204.216 14.248 205.832 12.488 208.136 12.488C210.072 12.488 211.896 13.656 211.896 16.648V17.08H205.592C205.656 18.984 206.568 20.04 208.28 20.04C209.576 20.04 210.328 19.56 210.504 18.584H211.832C211.544 20.264 210.152 21.144 208.264 21.144ZM205.64 16.008H210.536C210.408 14.28 209.512 13.592 208.136 13.592C206.776 13.592 205.864 14.52 205.64 16.008ZM216.603 21.144C214.603 21.144 213.403 20.136 213.323 18.424H214.619C214.715 19.416 215.243 20.04 216.587 20.04C217.851 20.04 218.411 19.608 218.411 18.712C218.411 17.832 217.755 17.544 216.459 17.304C214.283 16.904 213.547 16.296 213.547 14.84C213.547 13.288 215.067 12.488 216.379 12.488C217.883 12.488 219.179 13.096 219.403 14.904H218.123C217.931 13.992 217.419 13.592 216.363 13.592C215.403 13.592 214.779 14.072 214.779 14.792C214.779 15.544 215.195 15.848 216.731 16.12C218.459 16.44 219.675 16.824 219.675 18.6C219.675 20.12 218.635 21.144 216.603 21.144ZM228.381 21V10.696H225.053V9.56H233.101V10.696H229.773V21H228.381ZM237.187 20.04C238.867 20.04 239.923 18.776 239.923 16.888V16.776C239.923 14.84 238.851 13.592 237.187 13.592C235.507 13.592 234.451 14.84 234.451 16.76V16.888C234.451 18.792 235.491 20.04 237.187 20.04ZM237.171 21.144C234.787 21.144 233.075 19.336 233.075 16.888V16.76C233.075 14.248 234.819 12.488 237.187 12.488C239.555 12.488 241.299 14.232 241.299 16.744V16.872C241.299 19.4 239.555 21.144 237.171 21.144ZM244.879 21L242.303 12.632H243.743L245.695 19.368L247.727 12.632H248.879L250.783 19.368L252.751 12.632H254.111L251.503 21H250.031L248.287 14.728L246.335 21H244.879ZM259.17 21.144C256.802 21.144 255.122 19.48 255.122 16.904V16.776C255.122 14.248 256.738 12.488 259.042 12.488C260.978 12.488 262.802 13.656 262.802 16.648V17.08H256.498C256.562 18.984 257.474 20.04 259.186 20.04C260.482 20.04 261.234 19.56 261.41 18.584H262.738C262.45 20.264 261.058 21.144 259.17 21.144ZM256.546 16.008H261.442C261.314 14.28 260.418 13.592 259.042 13.592C257.682 13.592 256.77 14.52 256.546 16.008ZM264.84 21V12.632H266.168V14.136C266.696 13.192 267.416 12.536 268.92 12.488V13.736C267.24 13.816 266.168 14.344 266.168 16.408V21H264.84ZM273.369 21.144C271.369 21.144 270.169 20.136 270.089 18.424H271.385C271.481 19.416 272.009 20.04 273.353 20.04C274.617 20.04 275.177 19.608 275.177 18.712C275.177 17.832 274.521 17.544 273.225 17.304C271.049 16.904 270.313 16.296 270.313 14.84C270.313 13.288 271.833 12.488 273.145 12.488C274.649 12.488 275.945 13.096 276.169 14.904H274.889C274.697 13.992 274.185 13.592 273.129 13.592C272.169 13.592 271.545 14.072 271.545 14.792C271.545 15.544 271.961 15.848 273.497 16.12C275.225 16.44 276.441 16.824 276.441 18.6C276.441 20.12 275.401 21.144 273.369 21.144ZM282.795 21V9.56H284.731L288.267 18.472L291.691 9.56H293.611V21H292.219V11.368L288.427 21H287.995L284.075 11.368V21H282.795ZM299.826 21.144C297.458 21.144 295.778 19.48 295.778 16.904V16.776C295.778 14.248 297.394 12.488 299.698 12.488C301.634 12.488 303.458 13.656 303.458 16.648V17.08H297.154C297.218 18.984 298.13 20.04 299.842 20.04C301.138 20.04 301.89 19.56 302.066 18.584H303.394C303.106 20.264 301.714 21.144 299.826 21.144ZM297.202 16.008H302.098C301.97 14.28 301.074 13.592 299.698 13.592C298.338 13.592 297.426 14.52 297.202 16.008ZM308.04 21.112C306.52 21.112 305.784 20.216 305.784 18.904V13.752H304.584V12.632H305.784V10.728H307.112V12.632H309.064V13.752H307.112V18.776C307.112 19.592 307.48 19.992 308.152 19.992C308.568 19.992 308.888 19.928 309.176 19.816V20.936C308.904 21.032 308.584 21.112 308.04 21.112ZM311.183 21V12.632H312.511V14.136C313.039 13.192 313.759 12.536 315.263 12.488V13.736C313.583 13.816 312.511 14.344 312.511 16.408V21H311.183ZM320.453 20.04C322.133 20.04 323.189 18.776 323.189 16.888V16.776C323.189 14.84 322.117 13.592 320.453 13.592C318.773 13.592 317.717 14.84 317.717 16.76V16.888C317.717 18.792 318.757 20.04 320.453 20.04ZM320.437 21.144C318.053 21.144 316.341 19.336 316.341 16.888V16.76C316.341 14.248 318.085 12.488 320.453 12.488C322.821 12.488 324.565 14.232 324.565 16.744V16.872C324.565 19.4 322.821 21.144 320.437 21.144Z" fill="#210302"></path>
</g>
<defs>
<clipPath id="bgblur_0_18_58_clip_path" transform="translate(-2.00342 11)"><rect x="13.0034" width="326" height="32" rx="16"></rect>
</clipPath></defs>
</svg>