<svg width="265" height="32" viewBox="0 0 265 32" fill="none" xmlns="http://www.w3.org/2000/svg">
<path d="M8.96454e-05 26.2856L15.8727 17.1428L15.8727 26.2856L8.96454e-05 26.2856Z" fill="white"></path>
<g data-figma-bg-blur-radius="11">
<rect x="12.525" width="252.479" height="32" rx="16" fill="white"></rect>
<path d="M34.9446 21.746L33.5446 20.178C32.9286 20.472 32.2146 20.626 31.4446 20.626C28.4906 20.626 26.4886 18.358 26.4886 15.558V15.446C26.4886 12.604 28.4766 10.364 31.4166 10.364C34.3566 10.364 36.3026 12.604 36.3026 15.418V15.53C36.3026 17.224 35.6026 18.708 34.4266 19.632L35.6866 21.032L34.9446 21.746ZM31.4446 19.618C31.9486 19.618 32.4106 19.534 32.8166 19.366L31.6966 18.106L32.4386 17.392L33.7126 18.834C34.5666 18.106 35.0426 16.944 35.0426 15.516V15.404C35.0426 13.164 33.7266 11.344 31.4166 11.344C29.0926 11.344 27.7486 13.052 27.7486 15.432V15.544C27.7486 17.966 29.3586 19.618 31.4446 19.618ZM40.7203 20.626C39.2643 20.626 38.1723 19.828 38.1723 17.812V13.178H39.3343V17.756C39.3343 19.044 39.8803 19.618 41.0283 19.618C42.0643 19.618 43.0443 18.932 43.0443 17.616V13.178H44.2063V20.5H43.0443V19.338C42.7083 20.024 41.8963 20.626 40.7203 20.626ZM46.5828 20.5V13.178H47.7448V20.5H46.5828ZM47.1428 11.652C46.7228 11.652 46.3728 11.302 46.3728 10.882C46.3728 10.462 46.7228 10.112 47.1428 10.112C47.5628 10.112 47.9128 10.462 47.9128 10.882C47.9128 11.302 47.5628 11.652 47.1428 11.652ZM53.1611 20.626C51.1171 20.626 49.5771 19.184 49.5771 16.916V16.804C49.5771 14.564 51.1731 13.052 53.1331 13.052C54.6591 13.052 56.0871 13.752 56.3111 15.614H55.1631C54.9811 14.452 54.1411 14.018 53.1331 14.018C51.8031 14.018 50.7811 15.082 50.7811 16.804V16.916C50.7811 18.708 51.7611 19.66 53.1751 19.66C54.2111 19.66 55.1491 19.058 55.2751 17.868H56.3531C56.1991 19.45 54.9251 20.626 53.1611 20.626ZM58.1075 20.5V9.678H59.2695V16.552L62.3075 13.178H63.6655L60.5295 16.58L63.9315 20.5H62.5175L59.2695 16.706V20.5H58.1075ZM69.0593 20.5V9.678H70.2353V20.5H69.0593ZM72.6414 20.5V13.178H73.8034V20.5H72.6414ZM73.2014 11.652C72.7814 11.652 72.4314 11.302 72.4314 10.882C72.4314 10.462 72.7814 10.112 73.2014 10.112C73.6214 10.112 73.9714 10.462 73.9714 10.882C73.9714 11.302 73.6214 11.652 73.2014 11.652ZM76.1817 20.5V13.178H77.3437V14.34C77.6797 13.654 78.4917 13.052 79.6957 13.052C81.2077 13.052 82.2717 13.878 82.2717 16.006V20.5H81.1097V15.922C81.1097 14.634 80.5637 14.06 79.3877 14.06C78.3097 14.06 77.3437 14.746 77.3437 16.062V20.5H76.1817ZM84.5489 20.5V9.678H85.7109V16.552L88.7489 13.178H90.1069L86.9709 16.58L90.3729 20.5H88.9589L85.7109 16.706V20.5H84.5489ZM93.899 20.626C92.149 20.626 91.099 19.744 91.029 18.246H92.163C92.247 19.114 92.709 19.66 93.885 19.66C94.991 19.66 95.481 19.282 95.481 18.498C95.481 17.728 94.907 17.476 93.773 17.266C91.869 16.916 91.225 16.384 91.225 15.11C91.225 13.752 92.555 13.052 93.703 13.052C95.019 13.052 96.153 13.584 96.349 15.166H95.229C95.061 14.368 94.613 14.018 93.689 14.018C92.849 14.018 92.303 14.438 92.303 15.068C92.303 15.726 92.667 15.992 94.011 16.23C95.523 16.51 96.587 16.846 96.587 18.4C96.587 19.73 95.677 20.626 93.899 20.626ZM104.289 20.598C102.959 20.598 102.315 19.814 102.315 18.666V14.158H101.265V13.178H102.315V11.512H103.477V13.178H105.185V14.158H103.477V18.554C103.477 19.268 103.799 19.618 104.387 19.618C104.751 19.618 105.031 19.562 105.283 19.464V20.444C105.045 20.528 104.765 20.598 104.289 20.598ZM110.091 19.66C111.561 19.66 112.485 18.554 112.485 16.902V16.804C112.485 15.11 111.547 14.018 110.091 14.018C108.621 14.018 107.697 15.11 107.697 16.79V16.902C107.697 18.568 108.607 19.66 110.091 19.66ZM110.077 20.626C107.991 20.626 106.493 19.044 106.493 16.902V16.79C106.493 14.592 108.019 13.052 110.091 13.052C112.163 13.052 113.689 14.578 113.689 16.776V16.888C113.689 19.1 112.163 20.626 110.077 20.626ZM120.495 19.506H121.867C124.443 19.506 125.731 17.966 125.731 15.516V15.404C125.731 13.094 124.611 11.47 121.853 11.47H120.495V19.506ZM119.277 20.5V10.49H121.923C125.367 10.49 126.991 12.618 126.991 15.404V15.53C126.991 18.302 125.395 20.5 121.895 20.5H119.277ZM129.096 20.5V10.49H130.314V20.5H129.096ZM132.908 20.5V10.49H138.76V11.484H134.126V15.026H137.738V16.02H134.126V20.5H132.908ZM144.6 20.626C141.702 20.626 139.924 18.638 139.924 15.558V15.446C139.924 12.478 141.912 10.336 144.628 10.336C146.714 10.336 148.478 11.442 148.688 13.612H147.484C147.232 12.086 146.35 11.302 144.642 11.302C142.57 11.302 141.184 12.912 141.184 15.432V15.544C141.184 18.092 142.472 19.632 144.628 19.632C146.266 19.632 147.4 18.806 147.652 17.182H148.786C148.436 19.492 146.84 20.626 144.6 20.626ZM156.096 20.626C154.738 20.626 153.66 19.968 153.66 18.47C153.66 16.776 155.452 16.202 157.328 16.202H158.378V15.67C158.378 14.508 157.93 14.018 156.81 14.018C155.802 14.018 155.242 14.438 155.13 15.334H153.968C154.122 13.668 155.452 13.052 156.866 13.052C158.266 13.052 159.54 13.626 159.54 15.67V20.5H158.378V19.576C157.832 20.262 157.174 20.626 156.096 20.626ZM156.208 19.702C157.44 19.702 158.378 19.072 158.378 17.938V17.028H157.37C155.9 17.028 154.822 17.392 154.822 18.47C154.822 19.226 155.186 19.702 156.208 19.702ZM161.822 20.5V13.178H162.984V14.34C163.32 13.654 164.132 13.052 165.336 13.052C166.848 13.052 167.912 13.878 167.912 16.006V20.5H166.75V15.922C166.75 14.634 166.204 14.06 165.028 14.06C163.95 14.06 162.984 14.746 162.984 16.062V20.5H161.822ZM172.948 20.626C171.03 20.626 169.644 19.268 169.644 16.986V16.874C169.644 14.634 171.044 13.052 173.06 13.052C174.278 13.052 175.034 13.64 175.454 14.354V9.678H176.616V20.5H175.454V19.24C175.034 19.954 174.012 20.626 172.948 20.626ZM173.074 19.66C174.432 19.66 175.496 18.764 175.496 16.888V16.776C175.496 14.9 174.6 14.018 173.172 14.018C171.716 14.018 170.848 15.04 170.848 16.818V16.93C170.848 18.778 171.842 19.66 173.074 19.66ZM183.974 19.506H185.346C187.922 19.506 189.21 17.966 189.21 15.516V15.404C189.21 13.094 188.09 11.47 185.332 11.47H183.974V19.506ZM182.756 20.5V10.49H185.402C188.846 10.49 190.47 12.618 190.47 15.404V15.53C190.47 18.302 188.874 20.5 185.374 20.5H182.756ZM195.472 19.66C196.942 19.66 197.866 18.554 197.866 16.902V16.804C197.866 15.11 196.928 14.018 195.472 14.018C194.002 14.018 193.078 15.11 193.078 16.79V16.902C193.078 18.568 193.988 19.66 195.472 19.66ZM195.458 20.626C193.372 20.626 191.874 19.044 191.874 16.902V16.79C191.874 14.592 193.4 13.052 195.472 13.052C197.544 13.052 199.07 14.578 199.07 16.776V16.888C199.07 19.1 197.544 20.626 195.458 20.626ZM202.203 20.5L199.949 13.178H201.209L202.917 19.072L204.695 13.178H205.703L207.369 19.072L209.091 13.178H210.281L207.999 20.5H206.711L205.185 15.012L203.477 20.5H202.203ZM211.848 20.5V13.178H213.01V14.34C213.346 13.654 214.158 13.052 215.362 13.052C216.874 13.052 217.938 13.878 217.938 16.006V20.5H216.776V15.922C216.776 14.634 216.23 14.06 215.054 14.06C213.976 14.06 213.01 14.746 213.01 16.062V20.5H211.848ZM222.441 20.598C221.111 20.598 220.467 19.814 220.467 18.666V14.158H219.417V13.178H220.467V11.512H221.629V13.178H223.337V14.158H221.629V18.554C221.629 19.268 221.951 19.618 222.539 19.618C222.903 19.618 223.183 19.562 223.435 19.464V20.444C223.197 20.528 222.917 20.598 222.441 20.598ZM228.244 19.66C229.714 19.66 230.638 18.554 230.638 16.902V16.804C230.638 15.11 229.7 14.018 228.244 14.018C226.774 14.018 225.85 15.11 225.85 16.79V16.902C225.85 18.568 226.76 19.66 228.244 19.66ZM228.23 20.626C226.144 20.626 224.646 19.044 224.646 16.902V16.79C224.646 14.592 226.172 13.052 228.244 13.052C230.316 13.052 231.842 14.578 231.842 16.776V16.888C231.842 19.1 230.316 20.626 228.23 20.626ZM234.974 20.5L232.72 13.178H233.98L235.688 19.072L237.466 13.178H238.474L240.14 19.072L241.862 13.178H243.052L240.77 20.5H239.482L237.956 15.012L236.248 20.5H234.974ZM244.619 20.5V13.178H245.781V14.34C246.117 13.654 246.929 13.052 248.133 13.052C249.645 13.052 250.709 13.878 250.709 16.006V20.5H249.547V15.922C249.547 14.634 249.001 14.06 247.825 14.06C246.747 14.06 245.781 14.746 245.781 16.062V20.5H244.619Z" fill="#210302"></path>
</g>
<defs>
<clipPath id="bgblur_0_18_66_clip_path" transform="translate(-1.52502 11)"><rect x="12.525" width="252.479" height="32" rx="16"></rect>
</clipPath></defs>
</svg>